# Exported from Wings 3D 0.98.36
mtllib b5_04.mtl
o cylinder104
#64 vertices, 124 faces
v 33.25000000 1.0813765e-15 44.62150000
v 30.71899446 -12.72422413 44.62150000
v 23.51130047 -23.51130047 44.62150000
v 12.72422413 -30.71899446 44.62150000
v 3.4904737e-15 -33.25000000 44.62150000
v -12.72422413 -30.71899446 44.62150000
v -23.51130047 -23.51130047 44.62150000
v -30.71899446 -12.72422413 44.62150000
v -33.25000000 -2.9904397e-15 44.62150000
v -30.71899446 12.72422413 44.62150000
v -23.51130047 23.51130047 44.62150000
v -12.72422413 30.71899446 44.62150000
v -4.6531586e-15 33.25000000 44.62150000
v 12.72422413 30.71899446 44.62150000
v 23.51130047 23.51130047 44.62150000
v 30.71899446 12.72422413 44.62150000
v 38.33877959 -15.88044247 47.90430327
v 41.49759600 -4.5075515e-17 47.90430327
v 38.33877959 15.88044247 47.90430327
v 29.34323153 29.34323153 47.90430327
v 15.88044247 38.33877959 47.90430327
v -4.8959982e-15 41.49759600 47.90430327
v -15.88044247 38.33877959 47.90430327
v -29.34323153 29.34323153 47.90430327
v -38.33877959 15.88044247 47.90430327
v -41.49759600 -5.1268975e-15 47.90430327
v -38.33877959 -15.88044247 47.90430327
v -29.34323153 -29.34323153 47.90430327
v -15.88044247 -38.33877959 47.90430327
v 5.2676457e-15 -41.49759600 47.90430327
v 15.88044247 -38.33877959 47.90430327
v 29.34323153 -29.34323153 47.90430327
v 38.33877959 -15.88044247 50.87799711
v 41.49759600 -4.5075515e-17 50.87799711
v 38.33877959 15.88044247 50.87799711
v 29.34323153 29.34323153 50.87799711
v 15.88044247 38.33877959 50.87799711
v -4.8959982e-15 41.49759600 50.87799711
v -15.88044247 38.33877959 50.87799711
v -29.34323153 29.34323153 50.87799711
v -38.33877959 15.88044247 50.87799711
v -41.49759600 -5.1268975e-15 50.87799711
v -38.33877959 -15.88044247 50.87799711
v -29.34323153 -29.34323153 50.87799711
v -15.88044247 -38.33877959 50.87799711
v 5.2676457e-15 -41.49759600 50.87799711
v 15.88044247 -38.33877959 50.87799711
v 29.34323153 -29.34323153 50.87799711
v 19.62945515 -8.13078655 50.87799711
v 21.24676915 3.3342764e-15 50.87799711
v 19.62945515 8.13078655 50.87799711
v 15.02373455 15.02373455 50.87799711
v 8.13078655 19.62945515 50.87799711
v -6.1548579e-16 21.24676915 50.87799711
v -8.13078655 19.62945515 50.87799711
v -15.02373455 15.02373455 50.87799711
v -19.62945515 8.13078655 50.87799711
v -21.24676915 -5.3521876e-15 50.87799711
v -19.62945515 -8.13078655 50.87799711
v -15.02373455 -15.02373455 50.87799711
v -8.13078655 -19.62945515 50.87799711
v 4.8170654e-15 -21.24676915 50.87799711
v 8.13078655 -19.62945515 50.87799711
v 15.02373455 -15.02373455 50.87799711
vn 0.25029890 -5.1800145e-17 -0.96816861
vn 0.19848815 -8.2216485e-2 -0.97664881
vn 0.10625224 -0.10625224 -0.98864600
vn 8.2216485e-2 -0.19848815 -0.97664881
vn 6.2109399e-17 -0.15026336 -0.98864600
vn -8.2216485e-2 -0.19848815 -0.97664881
vn -0.10625224 -0.10625224 -0.98864600
vn -0.23124603 -9.5785244e-2 -0.96816861
vn -0.25029890 -1.6481864e-16 -0.96816861
vn -0.19848815 8.2216485e-2 -0.97664881
vn -0.10625224 0.10625224 -0.98864600
vn -8.2216485e-2 0.19848815 -0.97664881
vn -4.0620617e-17 0.15026336 -0.98864600
vn 8.2216485e-2 0.19848815 -0.97664881
vn 0.10625224 0.10625224 -0.98864600
vn 0.23124603 9.5785244e-2 -0.96816861
vn 0.76164442 -0.31548345 -0.56601058
vn 0.82439798 -5.5101665e-17 -0.56601058
vn 0.76164442 0.31548345 -0.56601058
vn 0.58293740 0.58293740 -0.56601058
vn 0.31548345 0.76164442 -0.56601058
vn -2.9670127e-17 0.82439798 -0.56601058
vn -0.31548345 0.76164442 -0.56601058
vn -0.58293740 0.58293740 -0.56601058
vn -0.76164442 0.31548345 -0.56601058
vn -0.82439798 -4.2385896e-18 -0.56601058
vn -0.76164442 -0.31548345 -0.56601058
vn -0.58293740 -0.58293740 -0.56601058
vn -0.31548345 -0.76164442 -0.56601058
vn 1.2715769e-17 -0.82439798 -0.56601058
vn 0.31548345 -0.76164442 -0.56601058
vn 0.58293740 -0.58293740 -0.56601058
vn 0.64691385 -0.26796049 0.71393252
vn 0.70021451 7.0399182e-32 0.71393252
vn 0.64691385 0.26796049 0.71393252
vn 0.49512643 0.49512643 0.71393252
vn 0.26796049 0.64691385 0.71393252
vn 0.0000000e+0 0.70021451 0.71393252
vn -0.26796049 0.64691385 0.71393252
vn -0.49512643 0.49512643 0.71393252
vn -0.64691385 0.26796049 0.71393252
vn -0.70021451 3.1704973e-16 0.71393252
vn -0.64691385 -0.26796049 0.71393252
vn -0.49512643 -0.49512643 0.71393252
vn -0.26796049 -0.64691385 0.71393252
vn 0.0000000e+0 -0.70021451 0.71393252
vn 0.26796049 -0.64691385 0.71393252
vn 0.49512643 -0.49512643 0.71393252
vn 1.9652088e-15 1.3427251e-16 1.00000000
vn 1.8998408e-15 8.3816471e-32 1.00000000
vn 1.5721671e-15 -3.1618683e-16 1.00000000
vn -1.7020594e-15 4.7828789e-16 1.00000000
vn -1.2749877e-15 9.1677855e-16 1.00000000
vn -1.3435491e-18 6.5244133e-16 1.00000000
vn 1.5025691e-15 7.6915670e-16 1.00000000
vn 2.0943365e-15 3.7486566e-16 1.00000000
vn -1.4909492e-16 -3.3611519e-16 1.00000000
vn -3.0554469e-16 3.9443045e-32 1.00000000
vn 3.4741273e-16 6.0123326e-17 1.00000000
vn 1.1297448e-15 3.1940497e-16 1.00000000
vn -5.0061609e-17 6.4923943e-16 1.00000000
vn -9.1943538e-17 6.4774216e-16 1.00000000
vn -8.2322567e-16 5.0161758e-16 1.00000000
vn -6.3806702e-16 2.1598274e-16 1.00000000
g cylinder104_default
usemtl default
f 1//1 18//18 2//2
f 2//2 16//16 1//1
f 2//2 32//32 3//3
f 3//3 15//15 2//2
f 3//3 32//32 4//4
f 4//4 14//14 3//3
f 4//4 30//30 5//5
f 5//5 13//13 4//4
f 5//5 30//30 6//6
f 6//6 12//12 5//5
f 6//6 28//28 7//7
f 7//7 11//11 6//6
f 7//7 28//28 8//8
f 8//8 10//10 7//7
f 8//8 26//26 9//9
f 9//9 10//10 8//8
f 9//9 26//26 10//10
f 10//10 24//24 11//11
f 11//11 7//7 10//10
f 11//11 24//24 12//12
f 12//12 6//6 11//11
f 12//12 22//22 13//13
f 13//13 5//5 12//12
f 13//13 22//22 14//14
f 14//14 4//4 13//13
f 14//14 20//20 15//15
f 15//15 3//3 14//14
f 15//15 20//20 16//16
f 16//16 2//2 15//15
f 16//16 18//18 1//1
f 17//17 2//2 18//18
f 17//17 32//32 2//2
f 17//17 33//33 32//32
f 18//18 16//16 19//19
f 18//18 33//33 17//17
f 19//19 16//16 20//20
f 19//19 35//35 18//18
f 20//20 14//14 21//21
f 20//20 35//35 19//19
f 21//21 14//14 22//22
f 21//21 37//37 20//20
f 22//22 12//12 23//23
f 22//22 37//37 21//21
f 23//23 12//12 24//24
f 23//23 39//39 22//22
f 24//24 10//10 25//25
f 24//24 39//39 23//23
f 25//25 10//10 26//26
f 25//25 41//41 24//24
f 26//26 8//8 27//27
f 26//26 41//41 25//25
f 27//27 8//8 28//28
f 27//27 43//43 26//26
f 28//28 6//6 29//29
f 28//28 43//43 27//27
f 29//29 6//6 30//30
f 29//29 45//45 28//28
f 30//30 4//4 31//31
f 30//30 45//45 29//29
f 31//31 4//4 32//32
f 31//31 47//47 30//30
f 32//32 47//47 31//31
f 33//33 18//18 34//34
f 33//33 64//64 48//48
f 34//34 18//18 35//35
f 34//34 50//50 33//33
f 35//35 20//20 36//36
f 35//35 50//50 34//34
f 36//36 20//20 37//37
f 36//36 52//52 35//35
f 37//37 22//22 38//38
f 37//37 52//52 36//36
f 38//38 22//22 39//39
f 38//38 54//54 37//37
f 39//39 24//24 40//40
f 39//39 54//54 38//38
f 40//40 24//24 41//41
f 40//40 56//56 39//39
f 41//41 26//26 42//42
f 41//41 56//56 40//40
f 42//42 26//26 43//43
f 42//42 58//58 41//41
f 43//43 28//28 44//44
f 43//43 58//58 42//42
f 44//44 28//28 45//45
f 44//44 60//60 43//43
f 45//45 30//30 46//46
f 45//45 60//60 44//44
f 46//46 30//30 47//47
f 46//46 62//62 45//45
f 47//47 32//32 48//48
f 47//47 62//62 46//46
f 48//48 32//32 33//33
f 48//48 64//64 47//47
f 49//49 33//33 50//50
f 49//49 51//51 64//64
f 49//49 64//64 33//33
f 50//50 35//35 51//51
f 50//50 51//51 49//49
f 51//51 35//35 52//52
f 52//52 37//37 53//53
f 52//52 64//64 51//51
f 53//53 37//37 54//54
f 53//53 63//63 52//52
f 54//54 39//39 55//55
f 54//54 62//62 53//53
f 55//55 39//39 56//56
f 55//55 61//61 54//54
f 56//56 41//41 57//57
f 56//56 60//60 55//55
f 57//57 41//41 58//58
f 57//57 59//59 56//56
f 58//58 43//43 59//59
f 58//58 59//59 57//57
f 59//59 43//43 60//60
f 60//60 45//45 61//61
f 60//60 56//56 59//59
f 61//61 45//45 62//62
f 61//61 55//55 60//60
f 62//62 47//47 63//63
f 62//62 54//54 61//61
f 63//63 47//47 64//64
f 63//63 53//53 62//62
f 64//64 52//52 63//63
