# Exported from Wings 3D 0.98.36
mtllib b3_01.mtl
o cylinder150
#32 vertices, 60 faces
v 54.10487370 4.1424641e-15 46.70238400
v 49.98638542 -20.70503877 46.70238400
v 38.25792309 -38.25792309 46.70238400
v 20.70503877 -49.98638542 46.70238400
v 0.0000000e+0 -54.10487370 46.70238400
v -20.70503877 -49.98638542 46.70238400
v -38.25792309 -38.25792309 46.70238400
v -49.98638542 -20.70503877 46.70238400
v -54.10487370 4.1424641e-15 46.70238400
v -49.98638542 20.70503877 46.70238400
v -38.25792309 38.25792309 46.70238400
v -20.70503877 49.98638542 46.70238400
v 0.0000000e+0 54.10487370 46.70238400
v 20.70503877 49.98638542 46.70238400
v 38.25792309 38.25792309 46.70238400
v 49.98638542 20.70503877 46.70238400
v 49.98638542 -20.70503877 75.00897124
v 54.10487370 4.1424641e-15 75.00897124
v 49.98638542 20.70503877 75.00897124
v 38.25792309 38.25792309 75.00897124
v 20.70503877 49.98638542 75.00897124
v 0.0000000e+0 54.10487370 75.00897124
v -20.70503877 49.98638542 75.00897124
v -38.25792309 38.25792309 75.00897124
v -49.98638542 20.70503877 75.00897124
v -54.10487370 4.1424641e-15 75.00897124
v -49.98638542 -20.70503877 75.00897124
v -38.25792309 -38.25792309 75.00897124
v -20.70503877 -49.98638542 75.00897124
v 0.0000000e+0 -54.10487370 75.00897124
v 20.70503877 -49.98638542 75.00897124
v 38.25792309 -38.25792309 75.00897124
vn 0.89090915 -1.2606070e-16 -0.45418155
vn 0.73389537 -0.30398942 -0.60744384
vn 0.38696817 -0.38696817 -0.83696551
vn 0.30398942 -0.73389537 -0.60744384
vn 1.5592882e-17 -0.54725564 -0.83696551
vn -0.30398942 -0.73389537 -0.60744384
vn -0.38696817 -0.38696817 -0.83696551
vn -0.82309273 -0.34093617 -0.45418155
vn -0.89090915 2.0169712e-16 -0.45418155
vn -0.73389537 0.30398942 -0.60744384
vn -0.38696817 0.38696817 -0.83696551
vn -0.30398942 0.73389537 -0.60744384
vn -3.3146872e-16 0.54725564 -0.83696551
vn 0.30398942 0.73389537 -0.60744384
vn 0.38696817 0.38696817 -0.83696551
vn 0.82309273 0.34093617 -0.45418155
vn 0.50559828 -0.20942567 0.83696551
vn 0.79436263 -1.4611960e-16 0.60744384
vn 0.50559828 0.20942567 0.83696551
vn 0.56169920 0.56169920 0.60744384
vn 0.26796049 0.64691385 0.71393252
vn -7.8154121e-16 0.96901550 0.24699991
vn -0.20942567 0.50559828 0.83696551
vn -0.56169920 0.56169920 0.60744384
vn -0.50559828 0.20942567 0.83696551
vn -0.79436263 1.5173958e-16 0.60744384
vn -0.50559828 -0.20942567 0.83696551
vn -0.56169920 -0.56169920 0.60744384
vn -0.26796049 -0.64691385 0.71393252
vn -2.6051374e-16 -0.96901550 0.24699991
vn 0.20942567 -0.50559828 0.83696551
vn 0.56169920 -0.56169920 0.60744384
g cylinder150_default
usemtl default
f 1//1 18//18 2//2
f 2//2 16//16 1//1
f 2//2 32//32 3//3
f 3//3 15//15 2//2
f 3//3 32//32 4//4
f 4//4 14//14 3//3
f 4//4 30//30 5//5
f 5//5 13//13 4//4
f 5//5 30//30 6//6
f 6//6 12//12 5//5
f 6//6 28//28 7//7
f 7//7 11//11 6//6
f 7//7 28//28 8//8
f 8//8 10//10 7//7
f 8//8 26//26 9//9
f 9//9 10//10 8//8
f 9//9 26//26 10//10
f 10//10 24//24 11//11
f 11//11 7//7 10//10
f 11//11 24//24 12//12
f 12//12 6//6 11//11
f 12//12 22//22 13//13
f 13//13 5//5 12//12
f 13//13 22//22 14//14
f 14//14 4//4 13//13
f 14//14 20//20 15//15
f 15//15 3//3 14//14
f 15//15 20//20 16//16
f 16//16 2//2 15//15
f 16//16 18//18 1//1
f 17//17 2//2 18//18
f 17//17 27//27 32//32
f 17//17 32//32 2//2
f 18//18 16//16 19//19
f 18//18 26//26 17//17
f 19//19 16//16 20//20
f 19//19 25//25 18//18
f 20//20 14//14 21//21
f 20//20 24//24 19//19
f 21//21 14//14 22//22
f 21//21 23//23 20//20
f 22//22 12//12 23//23
f 22//22 23//23 21//21
f 23//23 12//12 24//24
f 24//24 10//10 25//25
f 24//24 20//20 23//23
f 25//25 10//10 26//26
f 25//25 19//19 24//24
f 26//26 8//8 27//27
f 26//26 18//18 25//25
f 27//27 8//8 28//28
f 27//27 17//17 26//26
f 28//28 6//6 29//29
f 28//28 32//32 27//27
f 29//29 6//6 30//30
f 29//29 31//31 28//28
f 30//30 4//4 31//31
f 30//30 31//31 29//29
f 31//31 4//4 32//32
f 32//32 28//28 31//31
