# Exported from Wings 3D 0.98.36
mtllib b4_04.mtl
o cylinder126_copy129
#58 vertices, 112 faces
v -41.06304534 -65.62142304 16.74849685
v -31.42829427 -65.62142304 30.99190719
v -17.00887029 -65.62142304 40.50904971
v -4.8037653e-15 -65.62142304 43.85102574
v 17.00887029 -65.62142304 40.50904971
v 31.42829427 -65.62142304 30.99190719
v 41.06304534 -65.62142304 16.74849685
v -41.06304534 -51.35986213 16.74849685
v -31.42829427 -51.35986213 30.99190719
v -17.00887029 -51.35986213 40.50904971
v -3.0572855e-15 -51.35986213 43.85102574
v 17.00887029 -51.35986213 40.50904971
v 31.42829427 -51.35986213 30.99190719
v 41.06304534 -51.35986213 16.74849685
v 44.44632000 -51.35986213 -5.2751207e-2
v 44.44632000 -65.62142304 -5.2751207e-2
v -44.44632000 -65.62142304 -5.2751207e-2
v -44.44632000 -51.35986213 -5.2751207e-2
v -44.44632000 -65.62142304 -151.45934662
v 44.44632000 -65.62142304 -151.45934662
v 41.06304534 -65.62142304 -168.26059467
v 31.42829427 -65.62142304 -182.50400502
v 17.00887029 -65.62142304 -192.02114754
v 6.0820839e-15 -65.62142304 -195.36312356
v -17.00887029 -65.62142304 -192.02114754
v -31.42829427 -65.62142304 -182.50400502
v -41.06304534 -65.62142304 -168.26059467
v -44.44632000 -51.35986213 -151.45934662
v 44.44632000 -51.35986213 -151.45934662
v 41.06304534 -51.35986213 -168.26059467
v 31.42829427 -51.35986213 -182.50400502
v 17.00887029 -51.35986213 -192.02114754
v 7.8285637e-15 -51.35986213 -195.36312356
v -17.00887029 -51.35986213 -192.02114754
v -31.42829427 -51.35986213 -182.50400502
v -41.06304534 -51.35986213 -168.26059467
v -38.18863217 -80.89641288 10.27317864
v -41.33507760 -80.89641288 -5.35198205
v 41.33507760 -80.89641288 -5.35198205
v 38.18863217 -80.89641288 10.27317864
v 29.22831367 -80.89641288 23.51955026
v 15.81824937 -80.89641288 32.37049281
v -6.2710958e-15 -80.89641288 35.47853051
v -15.81824937 -80.89641288 32.37049281
v -29.22831367 -80.89641288 23.51955026
v -41.33507760 -80.89641288 -5.35198205
v -41.33507760 -80.89641288 -146.16011578
v 41.33507760 -80.89641288 -146.16011578
v 41.33507760 -80.89641288 -5.35198205
v 41.33507760 -80.89641288 -146.16011578
v -41.33507760 -80.89641288 -146.16011578
v -38.18863217 -80.89641288 -161.78527647
v -29.22831367 -80.89641288 -175.03164809
v -15.81824937 -80.89641288 -183.88259064
v 3.8527439e-15 -80.89641288 -186.99062834
v 15.81824937 -80.89641288 -183.88259064
v 29.22831367 -80.89641288 -175.03164809
v 38.18863217 -80.89641288 -161.78527647
vn -0.91091948 -0.16147340 0.37967360
vn -0.68864010 -0.20941349 0.69420516
vn -0.36887019 -0.23881778 0.89827660
vn -2.1852066e-17 -0.24861557 0.96860224
vn 0.36887019 -0.23881778 0.89827660
vn 0.68864010 -0.20941349 0.69420516
vn 0.90202073 -0.14642818 0.40610023
vn -0.82165750 0.45430122 0.34422281
vn -0.62638409 0.45418059 0.63353213
vn -0.26541626 0.71381732 0.64808877
vn 7.8656846e-17 0.60726676 0.79449801
vn 0.26541626 0.71381732 0.64808877
vn 0.62638409 0.45418059 0.63353213
vn 0.82165750 0.45430122 0.34422281
vn 0.44173310 0.89521049 5.8907166e-2
vn 0.98764034 -0.13255379 8.3642410e-2
vn -0.98838416 -0.11601159 9.8173598e-2
vn -0.61973946 0.78237230 6.1778546e-2
vn -0.98764034 -0.13255379 -8.3642410e-2
vn 0.98838416 -0.11601159 -9.8173598e-2
vn 0.91091948 -0.16147340 -0.37967360
vn 0.68864010 -0.20941349 -0.69420516
vn 0.36887019 -0.23881778 -0.89827660
vn 8.7408265e-17 -0.24861557 -0.96860224
vn -0.36887019 -0.23881778 -0.89827660
vn -0.68864010 -0.20941349 -0.69420516
vn -0.90202073 -0.14642818 -0.40610023
vn -0.44173310 0.89521049 -5.8907166e-2
vn 0.61973946 0.78237230 -6.1778546e-2
vn 0.82165750 0.45430122 -0.34422281
vn 0.62638409 0.45418059 -0.63353213
vn 0.26541626 0.71381732 -0.64808877
vn 7.8656846e-17 0.60726676 -0.79449801
vn -0.26541626 0.71381732 -0.64808877
vn -0.62638409 0.45418059 -0.63353213
vn -0.82165750 0.45430122 -0.34422281
vn -0.69555915 -0.65806774 0.28834756
vn -0.41543146 -0.84732162 -0.33085158
vn 0.23019196 -0.95572132 -0.18332597
vn 0.78694461 -0.55644813 0.26661518
vn 0.49748902 -0.70908409 0.49970434
vn 0.19583992 -0.85765557 0.47547202
vn -1.4004786e-16 -0.81683887 0.57686590
vn -0.19583992 -0.85765557 0.47547202
vn -0.49748902 -0.70908409 0.49970434
vn -0.47895937 -0.74655531 0.46179334
vn -0.47895937 -0.74655531 -0.46179334
vn 0.47895937 -0.74655531 -0.46179334
vn 0.47895937 -0.74655531 0.46179334
vn 0.41543146 -0.84732162 0.33085158
vn -0.23019196 -0.95572132 0.18332597
vn -0.78694461 -0.55644813 -0.26661518
vn -0.49748902 -0.70908409 -0.49970434
vn -0.19583992 -0.85765557 -0.47547202
vn -3.2423494e-17 -0.81683887 -0.57686590
vn 0.19583992 -0.85765557 -0.47547202
vn 0.49748902 -0.70908409 -0.49970434
vn 0.69555915 -0.65806774 -0.28834756
g cylinder126_copy129_default
usemtl default
f 1//1 9//9 8//8
f 1//1 18//18 17//17
f 1//1 45//45 2//2
f 2//2 9//9 1//1
f 2//2 45//45 3//3
f 3//3 9//9 2//2
f 3//3 11//11 10//10
f 3//3 43//43 4//4
f 4//4 11//11 3//3
f 4//4 43//43 5//5
f 5//5 11//11 4//4
f 5//5 13//13 12//12
f 5//5 41//41 6//6
f 6//6 13//13 5//5
f 6//6 41//41 7//7
f 7//7 13//13 6//6
f 7//7 15//15 14//14
f 7//7 40//40 16//16
f 8//8 9//9 18//18
f 8//8 18//18 1//1
f 10//10 9//9 3//3
f 10//10 18//18 9//9
f 11//11 18//18 10//10
f 12//12 11//11 5//5
f 12//12 15//15 11//11
f 13//13 15//15 12//12
f 14//14 13//13 7//7
f 14//14 15//15 13//13
f 15//15 28//28 18//18
f 16//16 15//15 7//7
f 16//16 29//29 15//15
f 16//16 38//38 17//17
f 16//16 48//48 20//20
f 17//17 38//38 1//1
f 17//17 46//46 16//16
f 18//18 11//11 15//15
f 18//18 19//19 17//17
f 19//19 46//46 17//17
f 19//19 50//50 20//20
f 20//20 21//21 29//29
f 20//20 29//29 16//16
f 20//20 48//48 19//19
f 20//20 50//50 21//21
f 21//21 31//31 30//30
f 21//21 57//57 22//22
f 22//22 31//31 21//21
f 22//22 57//57 23//23
f 23//23 31//31 22//22
f 23//23 33//33 32//32
f 23//23 55//55 24//24
f 24//24 33//33 23//23
f 24//24 55//55 25//25
f 25//25 33//33 24//24
f 25//25 35//35 34//34
f 25//25 53//53 26//26
f 26//26 35//35 25//25
f 26//26 53//53 27//27
f 27//27 28//28 36//36
f 27//27 35//35 26//26
f 27//27 52//52 19//19
f 28//28 19//19 18//18
f 28//28 27//27 19//19
f 28//28 35//35 36//36
f 29//29 28//28 15//15
f 29//29 33//33 28//28
f 30//30 29//29 21//21
f 30//30 31//31 29//29
f 32//32 29//29 31//31
f 32//32 31//31 23//23
f 33//33 29//29 32//32
f 34//34 28//28 33//33
f 34//34 33//33 25//25
f 35//35 28//28 34//34
f 36//36 35//35 27//27
f 37//37 1//1 38//38
f 37//37 45//45 1//1
f 38//38 16//16 39//39
f 38//38 45//45 37//37
f 39//39 16//16 40//40
f 39//39 43//43 38//38
f 40//40 7//7 41//41
f 40//40 41//41 39//39
f 41//41 5//5 42//42
f 42//42 5//5 43//43
f 42//42 39//39 41//41
f 43//43 3//3 44//44
f 43//43 39//39 42//42
f 44//44 3//3 45//45
f 44//44 38//38 43//43
f 45//45 38//38 44//44
f 46//46 19//19 47//47
f 47//47 19//19 48//48
f 47//47 48//48 46//46
f 48//48 16//16 49//49
f 49//49 16//16 46//46
f 49//49 46//46 48//48
f 50//50 19//19 51//51
f 51//51 19//19 52//52
f 51//51 55//55 50//50
f 52//52 27//27 53//53
f 52//52 53//53 51//51
f 53//53 25//25 54//54
f 54//54 25//25 55//55
f 54//54 51//51 53//53
f 55//55 23//23 56//56
f 55//55 51//51 54//54
f 56//56 23//23 57//57
f 56//56 50//50 55//55
f 57//57 21//21 58//58
f 57//57 50//50 56//56
f 58//58 21//21 50//50
f 58//58 50//50 57//57
