# Exported from Wings 3D 0.98.36
mtllib b5_07.mtl
o cylinder105_cut106
#54 vertices, 104 faces
v 46.86779378 9.00212218 0.0000000e+0
v 46.18254803 9.00212218 3.44496301
v 44.23113324 9.00212218 6.36546164
v 41.31063462 9.00212218 8.31687643
v 37.86567160 9.00212218 9.00212218
v 37.86567160 9.00212218 -9.00212218
v 41.31063462 9.00212218 -8.31687643
v 44.23113324 9.00212218 -6.36546164
v 46.18254803 9.00212218 -3.44496301
v 46.86779378 -6.03871585 0.0000000e+0
v 46.18254803 -6.03871585 3.44496301
v 44.23113324 -6.03871585 6.36546164
v 41.31063462 -6.03871585 8.31687643
v 37.86567160 -6.03871585 9.00212218
v 37.86567160 -6.03871585 -9.00212218
v 41.31063462 -6.03871585 -8.31687643
v 44.23113324 -6.03871585 -6.36546164
v 46.18254803 -6.03871585 -3.44496301
v 37.86567160 23.28077861 -9.00212218
v 37.86567160 23.28077861 9.00212218
v 41.31063462 23.28077861 8.31687643
v 44.23113324 23.28077861 6.36546164
v 46.18254803 23.28077861 3.44496301
v 46.86779378 23.28077861 0.0000000e+0
v 46.18254803 23.28077861 -3.44496301
v 44.23113324 23.28077861 -6.36546164
v 41.31063462 23.28077861 -8.31687643
v 37.86567160 36.92510830 -9.00212218
v 37.86567160 36.92510830 9.00212218
v 41.31063462 36.92510830 8.31687643
v 44.23113324 36.92510830 6.36546164
v 46.18254803 36.92510830 3.44496301
v 46.86779378 36.92510830 0.0000000e+0
v 46.18254803 36.92510830 -3.44496301
v 44.23113324 36.92510830 -6.36546164
v 41.31063462 36.92510830 -8.31687643
v 37.86567160 -20.08080368 9.00212218
v 37.86567160 -20.08080368 -9.00212218
v 41.31063462 -20.08080368 -8.31687643
v 44.23113324 -20.08080368 -6.36546164
v 46.18254803 -20.08080368 -3.44496301
v 46.86779378 -20.08080368 0.0000000e+0
v 46.18254803 -20.08080368 3.44496301
v 44.23113324 -20.08080368 6.36546164
v 41.31063462 -20.08080368 8.31687643
v 37.86567160 -34.27078775 9.00212218
v 37.86567160 -34.27078775 -9.00212218
v 41.31063462 -34.27078775 -8.31687643
v 44.23113324 -34.27078775 -6.36546164
v 46.18254803 -34.27078775 -3.44496301
v 46.86779378 -34.27078775 0.0000000e+0
v 46.18254803 -34.27078775 3.44496301
v 44.23113324 -34.27078775 6.36546164
v 41.31063462 -34.27078775 8.31687643
vn 1.00000000 0.0000000e+0 0.0000000e+0
vn 0.92387953 0.0000000e+0 0.38268343
vn 0.70710678 0.0000000e+0 0.70710678
vn 0.38268343 0.0000000e+0 0.92387953
vn -0.63439328 0.0000000e+0 0.77301045
vn -0.63439328 0.0000000e+0 -0.77301045
vn 0.38268343 0.0000000e+0 -0.92387953
vn 0.68673639 0.0000000e+0 -0.72690655
vn 0.93437672 0.0000000e+0 -0.35628661
vn 1.00000000 0.0000000e+0 0.0000000e+0
vn 0.92387953 0.0000000e+0 0.38268343
vn 0.70710678 0.0000000e+0 0.70710678
vn 0.38268343 0.0000000e+0 0.92387953
vn -0.63439328 0.0000000e+0 0.77301045
vn -0.63439328 0.0000000e+0 -0.77301045
vn 0.38268343 0.0000000e+0 -0.92387953
vn 0.73465612 0.0000000e+0 -0.67843967
vn 0.90793725 0.0000000e+0 -0.41910613
vn -0.63439328 0.0000000e+0 -0.77301045
vn -0.63439328 0.0000000e+0 0.77301045
vn 0.38268343 0.0000000e+0 0.92387953
vn 0.70710678 0.0000000e+0 0.70710678
vn 0.92387953 0.0000000e+0 0.38268343
vn 1.00000000 0.0000000e+0 0.0000000e+0
vn 0.92387953 0.0000000e+0 -0.38268343
vn 0.72690655 0.0000000e+0 -0.68673639
vn 0.35628661 0.0000000e+0 -0.93437672
vn -0.49824383 0.61900588 -0.60711186
vn -0.49824383 0.61900588 0.60711186
vn 0.30398942 0.60744384 0.73389537
vn 0.38696817 0.83696551 0.38696817
vn 0.73389537 0.60744384 0.30398942
vn 0.89090915 0.45418155 0.0000000e+0
vn 0.82309273 0.45418155 -0.34093617
vn 0.38696817 0.83696551 -0.38696817
vn 0.31051907 0.71316433 -0.62847000
vn -0.63439328 0.0000000e+0 0.77301045
vn -0.63439328 0.0000000e+0 -0.77301045
vn 0.38268343 0.0000000e+0 -0.92387953
vn 0.68673639 0.0000000e+0 -0.72690655
vn 0.93437672 0.0000000e+0 -0.35628661
vn 1.00000000 0.0000000e+0 0.0000000e+0
vn 0.92387953 0.0000000e+0 0.38268343
vn 0.70710678 0.0000000e+0 0.70710678
vn 0.38268343 0.0000000e+0 0.92387953
vn -0.49824383 -0.61900588 0.60711186
vn -0.49824383 -0.61900588 -0.60711186
vn 0.30398942 -0.60744384 -0.73389537
vn 0.38696817 -0.83696551 -0.38696817
vn 0.62847000 -0.71316433 -0.31051907
vn 0.96901550 -0.24699991 0.0000000e+0
vn 0.64691385 -0.71393252 0.26796049
vn 0.56169920 -0.60744384 0.56169920
vn 0.20942567 -0.83696551 0.50559828
g cylinder105_cut106_default
usemtl default
f 1//1 10//10 9//9
f 1//1 24//24 2//2
f 2//2 10//10 1//1
f 2//2 12//12 11//11
f 2//2 22//22 3//3
f 3//3 12//12 2//2
f 3//3 22//22 4//4
f 4//4 12//12 3//3
f 4//4 14//14 13//13
f 4//4 20//20 5//5
f 5//5 6//6 14//14
f 5//5 14//14 4//4
f 5//5 20//20 6//6
f 6//6 16//16 15//15
f 6//6 27//27 7//7
f 7//7 16//16 6//6
f 7//7 27//27 8//8
f 8//8 16//16 7//7
f 8//8 18//18 17//17
f 8//8 26//26 9//9
f 9//9 10//10 18//18
f 9//9 18//18 8//8
f 9//9 24//24 1//1
f 10//10 41//41 18//18
f 11//11 10//10 2//2
f 11//11 43//43 10//10
f 12//12 43//43 11//11
f 13//13 12//12 4//4
f 13//13 45//45 12//12
f 14//14 45//45 13//13
f 15//15 14//14 6//6
f 15//15 38//38 14//14
f 16//16 38//38 15//15
f 17//17 16//16 8//8
f 17//17 40//40 16//16
f 18//18 41//41 17//17
f 19//19 6//6 20//20
f 19//19 27//27 6//6
f 19//19 28//28 27//27
f 20//20 4//4 21//21
f 20//20 28//28 19//19
f 21//21 4//4 22//22
f 21//21 30//30 20//20
f 22//22 2//2 23//23
f 22//22 30//30 21//21
f 23//23 2//2 24//24
f 23//23 32//32 22//22
f 24//24 9//9 25//25
f 24//24 32//32 23//23
f 25//25 9//9 26//26
f 25//25 34//34 24//24
f 26//26 8//8 27//27
f 26//26 34//34 25//25
f 27//27 36//36 26//26
f 28//28 20//20 29//29
f 28//28 30//30 36//36
f 29//29 20//20 30//30
f 29//29 30//30 28//28
f 30//30 22//22 31//31
f 31//31 22//22 32//32
f 31//31 36//36 30//30
f 32//32 24//24 33//33
f 32//32 35//35 31//31
f 33//33 24//24 34//34
f 33//33 34//34 32//32
f 34//34 26//26 35//35
f 35//35 26//26 36//36
f 35//35 32//32 34//34
f 36//36 27//27 28//28
f 36//36 31//31 35//35
f 37//37 14//14 38//38
f 37//37 45//45 14//14
f 37//37 46//46 45//45
f 38//38 16//16 39//39
f 38//38 46//46 37//37
f 38//38 48//48 47//47
f 39//39 16//16 40//40
f 39//39 48//48 38//38
f 40//40 17//17 41//41
f 40//40 48//48 39//39
f 40//40 50//50 49//49
f 41//41 10//10 42//42
f 41//41 50//50 40//40
f 41//41 51//51 50//50
f 42//42 10//10 43//43
f 42//42 51//51 41//41
f 43//43 12//12 44//44
f 43//43 51//51 42//42
f 43//43 53//53 52//52
f 44//44 12//12 45//45
f 44//44 53//53 43//43
f 45//45 46//46 54//54
f 45//45 53//53 44//44
f 46//46 48//48 54//54
f 47//47 46//46 38//38
f 47//47 48//48 46//46
f 49//49 48//48 40//40
f 49//49 54//54 48//48
f 50//50 53//53 49//49
f 51//51 52//52 50//50
f 52//52 51//51 43//43
f 53//53 50//50 52//52
f 54//54 49//49 53//53
f 54//54 53//53 45//45
