# Exported from Wings 3D 0.98.36
mtllib b2f_06.mtl
o cylinder18
#54 vertices, 108 faces
v 504.11153794 31.44808003 58.38527930
v 511.71852269 9.03862559 58.38527930
v 510.17073326 -14.57607773 58.38527930
v 499.70380657 -35.80090543 58.38527930
v 443.66834247 61.25536541 58.38527930
v 467.28304579 59.70757598 58.38527930
v 488.50787349 49.24064929 58.38527930
v 481.91123731 -51.40456989 58.38527930
v 421.25888803 53.64838067 58.38527930
v 414.94954812 -90.06491917 58.38527930
v 392.54009368 -97.67190391 58.38527930
v 368.92539035 -96.12411449 58.38527930
v 347.70056266 -85.65718779 58.38527930
v 332.09689820 -67.86461853 58.38527930
v 324.48991345 -45.45516409 58.38527930
v 326.03770288 -21.84046077 58.38527930
v 336.50462958 -0.61563307 58.38527930
v 354.29719884 14.98803139 58.38527930
v 486.33210478 21.18311951 106.49539377
v 492.36657364 3.40614749 106.49539377
v 491.13874324 -15.32692436 106.49539377
v 482.83553963 -32.16415568 106.49539377
v 438.38372667 44.82864286 106.49539377
v 457.11679853 43.60081246 106.49539377
v 473.95402984 35.29760885 106.49539377
v 504.11153794 31.44808003 86.40735462
v 511.71852269 9.03862559 86.40735462
v 510.17073326 -14.57607773 86.40735462
v 499.70380657 -35.80090543 86.40735462
v 443.66834247 61.25536541 86.40735462
v 467.28304579 59.70757598 86.40735462
v 488.50787349 49.24064929 86.40735462
v 468.72105029 -44.54223062 106.49539377
v 481.91123731 -51.40456989 86.40735462
v 420.60675465 38.79417399 106.49539377
v 421.25888803 53.64838067 86.40735462
v 415.60168149 -75.21071250 106.49539377
v 397.82470947 -81.24518136 106.49539377
v 379.09163762 -80.01735096 106.49539377
v 362.25440630 -71.71414735 106.49539377
v 349.87633136 -57.59965801 106.49539377
v 343.84186250 -39.82268599 106.49539377
v 345.06969290 -21.08961414 106.49539377
v 353.37289651 -4.25238282 106.49539377
v 367.48738585 8.12569212 106.49539377
v 414.94954812 -90.06491917 86.40735462
v 392.54009368 -97.67190391 86.40735462
v 368.92539035 -96.12411449 86.40735462
v 347.70056266 -85.65718779 86.40735462
v 332.09689820 -67.86461853 86.40735462
v 324.48991345 -45.45516409 86.40735462
v 326.03770288 -21.84046077 86.40735462
v 336.50462958 -0.61563307 86.40735462
v 354.29719884 14.98803139 86.40735462
vn 0.77154996 0.44545458 -0.45418155
vn 0.88328730 0.11628698 -0.45418155
vn 0.76729538 -0.20559618 -0.60744384
vn 0.55551752 -0.42626358 -0.71393252
vn -0.11628698 0.88328730 -0.45418155
vn 0.18122885 0.67635528 -0.71393252
vn 0.32929487 0.49363352 -0.80491667
vn 0.32202099 -0.44937977 -0.83328284
vn -0.29112278 0.64252167 -0.70881128
vn 0.18385617 -0.40577922 -0.89528774
vn 0.10368513 -0.78756675 -0.60744384
vn -0.14164018 -0.52860835 -0.83696551
vn -0.58989926 -0.76877169 -0.24699991
vn -0.60640355 -0.35010725 -0.71393252
vn -0.78756675 -0.10368513 -0.60744384
vn -0.52860835 0.14164018 -0.83696551
vn -0.70680575 0.54235113 -0.45418155
vn -0.39194925 0.58671259 -0.70862128
vn 0.43081750 0.24873260 0.86748393
vn 0.37965791 4.8843092e-2 0.92383669
vn 0.60407284 -0.16537186 0.77958204
vn 0.22656611 -0.17633300 0.95790108
vn -9.2642335e-2 0.66822964 0.73816431
vn 0.15187164 0.45346998 0.87823686
vn 0.15298667 0.20059956 0.96765433
vn 0.79759373 0.46049096 0.38960534
vn 0.91622148 0.11947400 0.38244498
vn 0.90032315 -0.24347811 0.36074457
vn 0.74870059 -0.57812296 0.32437829
vn -0.12631887 0.93745521 0.32437829
vn 0.22280248 0.92601360 0.30472589
vn 0.57078744 0.69590279 0.43579927
vn 0.27502599 -0.38500232 0.88098463
vn 0.55733897 -0.77887517 0.28762257
vn -0.18064314 0.36501593 0.91330796
vn -0.38895665 0.88683960 0.24945591
vn 0.19590880 -0.43068066 0.88098463
vn 4.7759761e-2 -0.34449140 0.93757382
vn -0.10233832 -0.39037514 0.91495034
vn -0.36150775 -0.47401707 0.80288229
vn -0.25924127 -0.14967302 0.95414462
vn -0.50235870 -6.4628581e-2 0.86224062
vn -0.38924395 0.10655999 0.91495034
vn -0.45555499 0.35455160 0.81655545
vn -0.18033191 0.25244233 0.95065939
vn 0.39585620 -0.87210729 0.28762257
vn 0.12631887 -0.93745521 0.32437829
vn -0.23930335 -0.90144177 0.36074457
vn -0.56157826 -0.73373408 0.38244498
vn -0.79759373 -0.46049096 0.38960534
vn -0.91622148 -0.11947400 0.38244498
vn -0.90032315 0.24347811 0.36074457
vn -0.74870059 0.57812296 0.32437829
vn -0.56144438 0.75958418 0.32834751
g cylinder18_default
usemtl default
f 1//1 3//3 7//7
f 2//2 1//1 27//27
f 2//2 3//3 1//1
f 4//4 3//3 29//29
f 4//4 7//7 3//3
f 5//5 8//8 9//9
f 6//6 5//5 31//31
f 6//6 8//8 5//5
f 7//7 8//8 6//6
f 8//8 7//7 4//4
f 8//8 18//18 9//9
f 9//9 18//18 36//36
f 10//10 8//8 46//46
f 10//10 17//17 18//18
f 10//10 18//18 8//8
f 11//11 16//16 10//10
f 12//12 11//11 48//48
f 12//12 15//15 11//11
f 13//13 14//14 12//12
f 14//14 13//13 50//50
f 15//15 12//12 14//14
f 16//16 11//11 15//15
f 16//16 15//15 52//52
f 17//17 10//10 16//16
f 18//18 17//17 54//54
f 19//19 22//22 20//20
f 19//19 32//32 25//25
f 20//20 22//22 21//21
f 20//20 27//27 19//19
f 21//21 27//27 20//20
f 22//22 25//25 33//33
f 22//22 29//29 21//21
f 23//23 36//36 35//35
f 24//24 31//31 23//23
f 24//24 35//35 25//25
f 25//25 22//22 19//19
f 25//25 32//32 24//24
f 26//26 1//1 32//32
f 26//26 19//19 27//27
f 27//27 1//1 26//26
f 27//27 3//3 2//2
f 27//27 21//21 28//28
f 28//28 3//3 27//27
f 28//28 21//21 29//29
f 29//29 3//3 28//28
f 29//29 8//8 4//4
f 29//29 33//33 34//34
f 30//30 5//5 36//36
f 30//30 23//23 31//31
f 31//31 5//5 30//30
f 31//31 7//7 6//6
f 31//31 24//24 32//32
f 32//32 1//1 7//7
f 32//32 7//7 31//31
f 32//32 19//19 26//26
f 33//33 25//25 35//35
f 33//33 29//29 22//22
f 33//33 45//45 37//37
f 33//33 46//46 34//34
f 34//34 8//8 29//29
f 34//34 46//46 8//8
f 34//34 46//46 36//36
f 35//35 24//24 23//23
f 35//35 45//45 33//33
f 36//36 5//5 9//9
f 36//36 23//23 30//30
f 36//36 46//46 34//34
f 36//36 54//54 35//35
f 37//37 38//38 46//46
f 38//38 41//41 39//39
f 39//39 41//41 40//40
f 39//39 48//48 38//38
f 40//40 48//48 39//39
f 41//41 38//38 42//42
f 41//41 50//50 40//40
f 42//42 38//38 43//43
f 42//42 50//50 41//41
f 43//43 38//38 44//44
f 43//43 52//52 42//42
f 44//44 38//38 45//45
f 44//44 52//52 43//43
f 45//45 35//35 54//54
f 45//45 38//38 37//37
f 46//46 11//11 10//10
f 46//46 33//33 37//37
f 46//46 36//36 54//54
f 46//46 38//38 47//47
f 47//47 11//11 46//46
f 47//47 38//38 48//48
f 48//48 11//11 47//47
f 48//48 13//13 12//12
f 48//48 40//40 49//49
f 49//49 13//13 48//48
f 49//49 40//40 50//50
f 50//50 13//13 49//49
f 50//50 15//15 14//14
f 50//50 42//42 51//51
f 51//51 15//15 50//50
f 51//51 42//42 52//52
f 52//52 15//15 51//51
f 52//52 17//17 16//16
f 52//52 44//44 53//53
f 53//53 17//17 52//52
f 53//53 44//44 54//54
f 54//54 17//17 53//53
f 54//54 36//36 18//18
f 54//54 36//36 46//46
f 54//54 44//44 45//45
