# Exported from Wings 3D 0.98.36
mtllib b2_04.mtl
o cube4_copy5
#8 vertices, 12 faces
v 163.47264636 -157.76630704 49.42109108
v 180.54556325 -49.11426654 49.42109108
v 254.90978524 -47.84747491 49.42109108
v 278.39164274 -155.22574695 49.42109108
v 163.47264636 -157.76630704 -49.15210984
v 180.54556325 -49.11426654 -49.15210984
v 254.90978524 -47.84747491 -49.15210984
v 278.39164274 -155.22574695 -49.15210984
vn -0.59372573 -0.51918549 0.61476515
vn -0.54952848 0.63164961 0.54684295
vn 0.52103397 0.65869558 0.54281096
vn 0.61766343 -0.48603656 0.61827207
vn -0.59372573 -0.51918549 -0.61476515
vn -0.54952848 0.63164961 -0.54684295
vn 0.52103397 0.65869558 -0.54281096
vn 0.61766343 -0.48603656 -0.61827207
g cube4_copy5_default
usemtl default
f 1//1 4//4 2//2
f 1//1 5//5 4//4
f 2//2 4//4 3//3
f 2//2 5//5 1//1
f 2//2 7//7 6//6
f 3//3 7//7 2//2
f 4//4 5//5 8//8
f 4//4 7//7 3//3
f 5//5 7//7 8//8
f 6//6 5//5 2//2
f 6//6 7//7 5//5
f 8//8 7//7 4//4
