# Exported from Wings 3D 0.98.36
mtllib b3_02.mtl
o cylinder150_cut151
#32 vertices, 60 faces
v 50.39800000 4.4408921e-15 47.67206507
v 46.56168068 -19.28647962 47.67206507
v 35.63676756 -35.63676756 47.67206507
v 19.28647962 -46.56168068 47.67206507
v 0.0000000e+0 -50.39800000 47.67206507
v -19.28647962 -46.56168068 47.67206507
v -35.63676756 -35.63676756 47.67206507
v -46.56168068 -19.28647962 47.67206507
v -50.39800000 4.4408921e-15 47.67206507
v -46.56168068 19.28647962 47.67206507
v -35.63676756 35.63676756 47.67206507
v -19.28647962 46.56168068 47.67206507
v 0.0000000e+0 50.39800000 47.67206507
v 19.28647962 46.56168068 47.67206507
v 35.63676756 35.63676756 47.67206507
v 46.56168068 19.28647962 47.67206507
v 50.39800000 4.4408921e-15 -61.79736423
v 46.56168068 -19.28647962 -61.79736423
v 35.63676756 -35.63676756 -61.79736423
v 19.28647962 -46.56168068 -61.79736423
v 0.0000000e+0 -50.39800000 -61.79736423
v -19.28647962 -46.56168068 -61.79736423
v -35.63676756 -35.63676756 -61.79736423
v -46.56168068 -19.28647962 -61.79736423
v -50.39800000 -9.7699626e-15 -61.79736423
v -46.56168068 19.28647962 -61.79736423
v -35.63676756 35.63676756 -61.79736423
v -19.28647962 46.56168068 -61.79736423
v 0.0000000e+0 50.39800000 -61.79736423
v 19.28647962 46.56168068 -61.79736423
v 35.63676756 35.63676756 -61.79736423
v 46.56168068 19.28647962 -61.79736423
vn 0.89090915 5.4206102e-16 0.45418155
vn 0.82309273 -0.34093617 0.45418155
vn 0.38696817 -0.38696817 0.83696551
vn 0.30398942 -0.73389537 0.60744384
vn -1.7122056e-16 -0.54725564 0.83696551
vn -0.30398942 -0.73389537 0.60744384
vn -0.38696817 -0.38696817 0.83696551
vn -0.73389537 -0.30398942 0.60744384
vn -0.89090915 -1.4118799e-15 0.45418155
vn -0.82309273 0.34093617 0.45418155
vn -0.38696817 0.38696817 0.83696551
vn -0.30398942 0.73389537 0.60744384
vn -4.2594666e-16 0.54725564 0.83696551
vn 0.30398942 0.73389537 0.60744384
vn 0.38696817 0.38696817 0.83696551
vn 0.73389537 0.30398942 0.60744384
vn 0.79436263 3.7653896e-16 -0.60744384
vn 0.50559828 -0.20942567 -0.83696551
vn 0.56169920 -0.56169920 -0.60744384
vn 0.26796049 -0.64691385 -0.71393252
vn 0.0000000e+0 -0.96901550 -0.24699991
vn -0.20942567 -0.50559828 -0.83696551
vn -0.56169920 -0.56169920 -0.60744384
vn -0.50559828 -0.20942567 -0.83696551
vn -0.79436263 -1.1183769e-15 -0.60744384
vn -0.50559828 0.20942567 -0.83696551
vn -0.56169920 0.56169920 -0.60744384
vn -0.26796049 0.64691385 -0.71393252
vn -3.3592561e-16 0.96901550 -0.24699991
vn 0.20942567 0.50559828 -0.83696551
vn 0.56169920 0.56169920 -0.60744384
vn 0.50559828 0.20942567 -0.83696551
g cylinder150_cut151_default
usemtl default
f 1//1 16//16 2//2
f 1//1 17//17 16//16
f 2//2 16//16 3//3
f 2//2 17//17 1//1
f 2//2 19//19 18//18
f 3//3 15//15 4//4
f 3//3 19//19 2//2
f 4//4 14//14 5//5
f 4//4 19//19 3//3
f 4//4 21//21 20//20
f 5//5 13//13 6//6
f 5//5 21//21 4//4
f 6//6 12//12 7//7
f 6//6 21//21 5//5
f 6//6 23//23 22//22
f 7//7 11//11 8//8
f 7//7 23//23 6//6
f 8//8 10//10 9//9
f 8//8 23//23 7//7
f 8//8 25//25 24//24
f 9//9 25//25 8//8
f 10//10 8//8 11//11
f 10//10 25//25 9//9
f 10//10 27//27 26//26
f 11//11 7//7 12//12
f 11//11 27//27 10//10
f 12//12 6//6 13//13
f 12//12 27//27 11//11
f 12//12 29//29 28//28
f 13//13 5//5 14//14
f 13//13 29//29 12//12
f 14//14 4//4 15//15
f 14//14 29//29 13//13
f 14//14 31//31 30//30
f 15//15 3//3 16//16
f 15//15 31//31 14//14
f 16//16 17//17 32//32
f 16//16 31//31 15//15
f 17//17 25//25 32//32
f 18//18 17//17 2//2
f 18//18 24//24 17//17
f 19//19 23//23 18//18
f 20//20 19//19 4//4
f 20//20 22//22 19//19
f 21//21 22//22 20//20
f 22//22 21//21 6//6
f 23//23 19//19 22//22
f 24//24 18//18 23//23
f 24//24 23//23 8//8
f 25//25 17//17 24//24
f 26//26 25//25 10//10
f 26//26 32//32 25//25
f 27//27 31//31 26//26
f 28//28 27//27 12//12
f 28//28 30//30 27//27
f 29//29 30//30 28//28
f 30//30 29//29 14//14
f 31//31 27//27 30//30
f 32//32 26//26 31//31
f 32//32 31//31 16//16
