# Exported from Wings 3D 0.98.36
mtllib b4_01.mtl
o cylinder125
#32 vertices, 60 faces
v 43.89927200 1.2612090e-15 -187.53901303
v 40.55763889 -16.79952409 -187.53901303
v 31.04147292 -31.04147292 -187.53901303
v 16.79952409 -40.55763889 -187.53901303
v 5.2010829e-15 -43.89927200 -187.53901303
v -16.79952409 -40.55763889 -187.53901303
v -31.04147292 -31.04147292 -187.53901303
v -40.55763889 -16.79952409 -187.53901303
v -43.89927200 -4.1147237e-15 -187.53901303
v -40.55763889 16.79952409 -187.53901303
v -31.04147292 31.04147292 -187.53901303
v -16.79952409 40.55763889 -187.53901303
v -5.5507825e-15 43.89927200 -187.53901303
v 16.79952409 40.55763889 -187.53901303
v 31.04147292 31.04147292 -187.53901303
v 40.55763889 16.79952409 -187.53901303
v 43.89927200 -4.1147237e-15 -193.40811145
v 40.55763889 -16.79952409 -193.40811145
v 31.04147292 -31.04147292 -193.40811145
v 16.79952409 -40.55763889 -193.40811145
v 5.2010829e-15 -43.89927200 -193.40811145
v -16.79952409 -40.55763889 -193.40811145
v -31.04147292 -31.04147292 -193.40811145
v -40.55763889 -16.79952409 -193.40811145
v -43.89927200 -9.4906565e-15 -193.40811145
v -40.55763889 16.79952409 -193.40811145
v -31.04147292 31.04147292 -193.40811145
v -16.79952409 40.55763889 -193.40811145
v -5.5507825e-15 43.89927200 -193.40811145
v 16.79952409 40.55763889 -193.40811145
v 31.04147292 31.04147292 -193.40811145
v 40.55763889 16.79952409 -193.40811145
vn 0.89090915 1.2858192e-15 0.45418155
vn 0.82309273 -0.34093617 0.45418155
vn 0.38696817 -0.38696817 0.83696551
vn 0.30398942 -0.73389537 0.60744384
vn 7.7434865e-18 -0.54725564 0.83696551
vn -0.30398942 -0.73389537 0.60744384
vn -0.38696817 -0.38696817 0.83696551
vn -0.73389537 -0.30398942 0.60744384
vn -0.89090915 -1.5757588e-15 0.45418155
vn -0.82309273 0.34093617 0.45418155
vn -0.38696817 0.38696817 0.83696551
vn -0.30398942 0.73389537 0.60744384
vn -1.0298837e-15 0.54725564 0.83696551
vn 0.30398942 0.73389537 0.60744384
vn 0.38696817 0.38696817 0.83696551
vn 0.73389537 0.30398942 0.60744384
vn 0.96901550 1.0694774e-15 -0.24699991
vn 0.50559828 -0.20942567 -0.83696551
vn 0.56169920 -0.56169920 -0.60744384
vn 0.20942567 -0.50559828 -0.83696551
vn 4.1587885e-16 -0.79436263 -0.60744384
vn -0.20942567 -0.50559828 -0.83696551
vn -0.56169920 -0.56169920 -0.60744384
vn -0.64691385 -0.26796049 -0.71393252
vn -0.96901550 -8.4324183e-16 -0.24699991
vn -0.50559828 0.20942567 -0.83696551
vn -0.56169920 0.56169920 -0.60744384
vn -0.20942567 0.50559828 -0.83696551
vn -3.9339891e-16 0.79436263 -0.60744384
vn 0.20942567 0.50559828 -0.83696551
vn 0.56169920 0.56169920 -0.60744384
vn 0.64691385 0.26796049 -0.71393252
g cylinder125_default
usemtl default
f 1//1 16//16 2//2
f 1//1 17//17 16//16
f 2//2 16//16 3//3
f 2//2 17//17 1//1
f 2//2 19//19 18//18
f 3//3 15//15 4//4
f 3//3 19//19 2//2
f 4//4 14//14 5//5
f 4//4 19//19 3//3
f 4//4 21//21 20//20
f 5//5 13//13 6//6
f 5//5 21//21 4//4
f 6//6 12//12 7//7
f 6//6 21//21 5//5
f 6//6 23//23 22//22
f 7//7 11//11 8//8
f 7//7 23//23 6//6
f 8//8 10//10 9//9
f 8//8 23//23 7//7
f 8//8 25//25 24//24
f 9//9 25//25 8//8
f 10//10 8//8 11//11
f 10//10 25//25 9//9
f 10//10 27//27 26//26
f 11//11 7//7 12//12
f 11//11 27//27 10//10
f 12//12 6//6 13//13
f 12//12 27//27 11//11
f 12//12 29//29 28//28
f 13//13 5//5 14//14
f 13//13 29//29 12//12
f 14//14 4//4 15//15
f 14//14 29//29 13//13
f 14//14 31//31 30//30
f 15//15 3//3 16//16
f 15//15 31//31 14//14
f 16//16 17//17 32//32
f 16//16 31//31 15//15
f 18//18 17//17 2//2
f 18//18 32//32 17//17
f 19//19 31//31 18//18
f 20//20 19//19 4//4
f 20//20 30//30 19//19
f 21//21 29//29 20//20
f 22//22 21//21 6//6
f 22//22 28//28 21//21
f 23//23 27//27 22//22
f 24//24 23//23 8//8
f 24//24 26//26 23//23
f 25//25 26//26 24//24
f 26//26 25//25 10//10
f 27//27 23//23 26//26
f 28//28 22//22 27//27
f 28//28 27//27 12//12
f 29//29 21//21 28//28
f 30//30 20//20 29//29
f 30//30 29//29 14//14
f 31//31 19//19 30//30
f 32//32 18//18 31//31
f 32//32 31//31 16//16
