# Exported from Wings 3D 0.98.36
mtllib b5_01.mtl
o cylinder103_cut110
#96 vertices, 188 faces
v 35.22456000 115.62165372 0.0000000e+0
v 32.54325003 115.62165372 13.47985552
v 24.90752524 115.62165372 24.90752524
v 13.47985552 115.62165372 32.54325003
v 3.9419083e-15 115.62165372 35.22456000
v -13.47985552 115.62165372 32.54325003
v -24.90752524 115.62165372 24.90752524
v -32.54325003 115.62165372 13.47985552
v -35.22456000 115.62165372 0.0000000e+0
v -32.54325003 115.62165372 -13.47985552
v -24.90752524 115.62165372 -24.90752524
v -13.47985552 115.62165372 -32.54325003
v -4.6853357e-15 115.62165372 -35.22456000
v 13.47985552 115.62165372 -32.54325003
v 24.90752524 115.62165372 -24.90752524
v 32.54325003 115.62165372 -13.47985552
v 50.58246816 102.50389961 0.0000000e+0
v 46.73210704 102.50389961 19.35707253
v 35.76720625 102.50389961 35.76720625
v 19.35707253 102.50389961 46.73210704
v 6.2414491e-15 102.50389961 50.58246816
v -19.35707253 102.50389961 46.73210704
v -35.76720625 102.50389961 35.76720625
v -46.73210704 102.50389961 19.35707253
v -50.58246816 102.50389961 0.0000000e+0
v -46.73210704 102.50389961 -19.35707253
v -35.76720625 102.50389961 -35.76720625
v -19.35707253 102.50389961 -46.73210704
v -6.1472733e-15 102.50389961 -50.58246816
v 19.35707253 102.50389961 -46.73210704
v 35.76720625 102.50389961 -35.76720625
v 46.73210704 102.50389961 -19.35707253
v 50.58246816 38.38273972 0.0000000e+0
v 46.73210704 38.38273972 19.35707253
v 35.76720625 38.38273972 35.76720625
v 19.35707253 38.38273972 46.73210704
v 6.2414491e-15 38.38273972 50.58246816
v -19.35707253 38.38273972 46.73210704
v -35.76720625 38.38273972 35.76720625
v -46.73210704 38.38273972 19.35707253
v -50.58246816 38.38273972 0.0000000e+0
v -46.73210704 38.38273972 -19.35707253
v -35.76720625 38.38273972 -35.76720625
v -19.35707253 38.38273972 -46.73210704
v -6.1472733e-15 38.38273972 -50.58246816
v 19.35707253 38.38273972 -46.73210704
v 35.76720625 38.38273972 -35.76720625
v 46.73210704 38.38273972 -19.35707253
v 42.79276806 34.38112871 0.0000000e+0
v 39.53536255 34.38112871 16.37608336
v 30.25905648 34.38112871 30.25905648
v 16.37608336 34.38112871 39.53536255
v 4.8699275e-15 34.38112871 42.79276806
v -16.37608336 34.38112871 39.53536255
v -30.25905648 34.38112871 30.25905648
v -39.53536255 34.38112871 16.37608336
v -42.79276806 34.38112871 0.0000000e+0
v -39.53536255 34.38112871 -16.37608336
v -30.25905648 34.38112871 -30.25905648
v -16.37608336 34.38112871 -39.53536255
v -5.6109316e-15 34.38112871 -42.79276806
v 16.37608336 34.38112871 -39.53536255
v 30.25905648 34.38112871 -30.25905648
v 39.53536255 34.38112871 -16.37608336
v 39.71168876 34.38112871 0.0000000e+0
v 36.68881645 34.38112871 15.19700536
v 28.08040442 34.38112871 28.08040442
v 15.19700536 34.38112871 36.68881645
v 5.0693646e-15 34.38112871 39.71168876
v -15.19700536 34.38112871 36.68881645
v -28.08040442 34.38112871 28.08040442
v -36.68881645 34.38112871 15.19700536
v -39.71168876 34.38112871 0.0000000e+0
v -36.68881645 34.38112871 -15.19700536
v -28.08040442 34.38112871 -28.08040442
v -15.19700536 34.38112871 -36.68881645
v -4.8131830e-15 34.38112871 -39.71168876
v 15.19700536 34.38112871 -36.68881645
v 28.08040442 34.38112871 -28.08040442
v 36.68881645 34.38112871 -15.19700536
v 15.10006801 115.62165372 6.25465296
v 16.34419584 115.62165372 9.8979926e-15
v 15.10006801 115.62165372 -6.25465296
v 11.55709171 115.62165372 -11.55709171
v 6.25465296 115.62165372 -15.10006801
v -3.6955364e-15 115.62165372 -16.34419584
v -6.25465296 115.62165372 -15.10006801
v -11.55709171 115.62165372 -11.55709171
v -15.10006801 115.62165372 -6.25465296
v -16.34419584 115.62165372 -4.9489963e-16
v -15.10006801 115.62165372 6.25465296
v -11.55709171 115.62165372 11.55709171
v -6.25465296 115.62165372 15.10006801
v 3.4470087e-15 115.62165372 16.34419584
v 6.25465296 115.62165372 15.10006801
v 11.55709171 115.62165372 11.55709171
vn 0.34469959 0.93871305 1.4155143e-17
vn 0.31846090 0.93871305 0.13191082
vn 0.24373942 0.93871305 0.24373942
vn 0.13191082 0.93871305 0.31846090
vn -4.4560037e-17 0.93871305 0.34469959
vn -0.13191082 0.93871305 0.31846090
vn -0.24373942 0.93871305 0.24373942
vn -0.31846090 0.93871305 0.13191082
vn -0.34469959 0.93871305 0.0000000e+0
vn -0.31846090 0.93871305 -0.13191082
vn -0.24373942 0.93871305 -0.24373942
vn -0.13191082 0.93871305 -0.31846090
vn -1.1882677e-16 0.93871305 -0.34469959
vn 0.13191082 0.93871305 -0.31846090
vn 0.24373942 0.93871305 -0.24373942
vn 0.31846090 0.93871305 -0.13191082
vn 0.90707341 0.42097248 -4.2608608e-17
vn 0.83802656 0.42097248 0.34712197
vn 0.64139776 0.42097248 0.64139776
vn 0.34712197 0.42097248 0.83802656
vn -3.4861588e-17 0.42097248 0.90707341
vn -0.34712197 0.42097248 0.83802656
vn -0.64139776 0.42097248 0.64139776
vn -0.83802656 0.42097248 0.34712197
vn -0.90707341 0.42097248 1.1233178e-16
vn -0.83802656 0.42097248 -0.34712197
vn -0.64139776 0.42097248 -0.64139776
vn -0.34712197 0.42097248 -0.83802656
vn -6.9723176e-17 0.42097248 -0.90707341
vn 0.34712197 0.42097248 -0.83802656
vn 0.64139776 0.42097248 -0.64139776
vn 0.83802656 0.42097248 -0.34712197
vn 0.85106340 -0.52506294 -9.4595649e-17
vn 0.78628006 -0.52506294 0.32568786
vn 0.60179270 -0.52506294 0.60179270
vn 0.32568786 -0.52506294 0.78628006
vn 3.7015689e-17 -0.52506294 0.85106340
vn -0.32568786 -0.52506294 0.78628006
vn -0.60179270 -0.52506294 0.60179270
vn -0.78628006 -0.52506294 0.32568786
vn -0.85106340 -0.52506294 1.1927278e-16
vn -0.78628006 -0.52506294 -0.32568786
vn -0.60179270 -0.52506294 -0.60179270
vn -0.32568786 -0.52506294 -0.78628006
vn -2.0564272e-17 -0.52506294 -0.85106340
vn 0.32568786 -0.52506294 -0.78628006
vn 0.60179270 -0.52506294 -0.60179270
vn 0.78628006 -0.52506294 -0.32568786
vn 0.23457219 -0.97209870 -4.6498368e-17
vn 0.21671645 -0.97209870 8.9766892e-2
vn 0.16586759 -0.97209870 0.16586759
vn 8.9766892e-2 -0.97209870 0.21671645
vn 1.4307190e-17 -0.97209870 0.23457219
vn -8.9766892e-2 -0.97209870 0.21671645
vn -0.16586759 -0.97209870 0.16586759
vn -0.21671645 -0.97209870 8.9766892e-2
vn -0.23457219 -0.97209870 1.6095589e-17
vn -0.21671645 -0.97209870 -8.9766892e-2
vn -0.16586759 -0.97209870 -0.16586759
vn -8.9766892e-2 -0.97209870 -0.21671645
vn -7.5112749e-17 -0.97209870 -0.23457219
vn 8.9766892e-2 -0.97209870 -0.21671645
vn 0.16586759 -0.97209870 -0.16586759
vn 0.21671645 -0.97209870 -8.9766892e-2
vn 0.0000000e+0 -1.00000000 -2.0233362e-16
vn 0.0000000e+0 -1.00000000 2.2235789e-17
vn 0.0000000e+0 -1.00000000 4.6999481e-16
vn 0.0000000e+0 -1.00000000 6.4183014e-16
vn 0.0000000e+0 -1.00000000 -7.8456032e-17
vn 0.0000000e+0 -1.00000000 2.9528249e-16
vn 0.0000000e+0 -1.00000000 4.5417560e-16
vn 0.0000000e+0 -1.00000000 -7.2840102e-18
vn 0.0000000e+0 -1.00000000 9.8607613e-31
vn 0.0000000e+0 -1.00000000 6.2434374e-18
vn 0.0000000e+0 -1.00000000 -5.1702576e-16
vn 0.0000000e+0 -1.00000000 5.8966536e-16
vn 0.0000000e+0 -1.00000000 -3.7675915e-17
vn 0.0000000e+0 -1.00000000 2.2446485e-17
vn 0.0000000e+0 -1.00000000 -4.1430469e-16
vn 0.0000000e+0 -1.00000000 -3.3224901e-16
vn 6.9538478e-16 1.00000000 3.5099858e-16
vn 1.2042865e-15 1.00000000 4.3474085e-16
vn 5.5630782e-16 1.00000000 1.8211388e-15
vn 6.0825653e-16 1.00000000 -8.8019427e-17
vn 2.3043024e-16 1.00000000 -5.4775020e-16
vn -1.4086802e-32 1.00000000 -1.3487846e-15
vn -2.3043024e-16 1.00000000 -6.2583043e-16
vn -6.0825653e-16 1.00000000 -6.5794521e-16
vn -6.9538478e-16 1.00000000 1.2033906e-16
vn -1.2042865e-15 1.00000000 1.9254250e-16
vn -5.5630782e-16 1.00000000 -1.2515262e-15
vn -6.0825653e-16 1.00000000 2.2554978e-16
vn -2.3043024e-16 1.00000000 1.4433956e-16
vn 2.1130203e-32 1.00000000 6.6938395e-16
vn 2.3043024e-16 1.00000000 0.0000000e+0
vn 6.0825653e-16 1.00000000 4.5446602e-16
g cylinder103_cut110_default
usemtl default
f 1//1 17//17 16//16
f 1//1 82//82 2//2
f 2//2 17//17 1//1
f 2//2 19//19 18//18
f 2//2 96//96 3//3
f 3//3 19//19 2//2
f 3//3 96//96 4//4
f 4//4 19//19 3//3
f 4//4 21//21 20//20
f 4//4 94//94 5//5
f 5//5 21//21 4//4
f 5//5 94//94 6//6
f 6//6 21//21 5//5
f 6//6 23//23 22//22
f 6//6 92//92 7//7
f 7//7 23//23 6//6
f 7//7 92//92 8//8
f 8//8 23//23 7//7
f 8//8 25//25 24//24
f 8//8 90//90 9//9
f 9//9 25//25 8//8
f 9//9 90//90 10//10
f 10//10 25//25 9//9
f 10//10 27//27 26//26
f 10//10 88//88 11//11
f 11//11 27//27 10//10
f 11//11 88//88 12//12
f 12//12 27//27 11//11
f 12//12 29//29 28//28
f 12//12 86//86 13//13
f 13//13 29//29 12//12
f 13//13 86//86 14//14
f 14//14 29//29 13//13
f 14//14 31//31 30//30
f 14//14 84//84 15//15
f 15//15 31//31 14//14
f 15//15 84//84 16//16
f 16//16 17//17 32//32
f 16//16 31//31 15//15
f 16//16 82//82 1//1
f 17//17 48//48 32//32
f 18//18 17//17 2//2
f 18//18 34//34 17//17
f 19//19 34//34 18//18
f 20//20 19//19 4//4
f 20//20 36//36 19//19
f 21//21 36//36 20//20
f 22//22 21//21 6//6
f 22//22 38//38 21//21
f 23//23 38//38 22//22
f 24//24 23//23 8//8
f 24//24 40//40 23//23
f 25//25 40//40 24//24
f 26//26 25//25 10//10
f 26//26 42//42 25//25
f 27//27 42//42 26//26
f 28//28 27//27 12//12
f 28//28 44//44 27//27
f 29//29 44//44 28//28
f 30//30 29//29 14//14
f 30//30 46//46 29//29
f 31//31 46//46 30//30
f 32//32 31//31 16//16
f 32//32 48//48 31//31
f 33//33 17//17 34//34
f 33//33 48//48 17//17
f 33//33 49//49 48//48
f 34//34 19//19 35//35
f 34//34 49//49 33//33
f 35//35 19//19 36//36
f 35//35 51//51 34//34
f 36//36 21//21 37//37
f 36//36 51//51 35//35
f 37//37 21//21 38//38
f 37//37 53//53 36//36
f 38//38 23//23 39//39
f 38//38 53//53 37//37
f 39//39 23//23 40//40
f 39//39 55//55 38//38
f 40//40 25//25 41//41
f 40//40 55//55 39//39
f 41//41 25//25 42//42
f 41//41 57//57 40//40
f 42//42 27//27 43//43
f 42//42 57//57 41//41
f 43//43 27//27 44//44
f 43//43 59//59 42//42
f 44//44 29//29 45//45
f 44//44 59//59 43//43
f 45//45 29//29 46//46
f 45//45 61//61 44//44
f 46//46 31//31 47//47
f 46//46 61//61 45//45
f 47//47 31//31 48//48
f 47//47 63//63 46//46
f 48//48 63//63 47//47
f 49//49 34//34 50//50
f 49//49 80//80 64//64
f 50//50 34//34 51//51
f 50//50 66//66 49//49
f 51//51 36//36 52//52
f 51//51 66//66 50//50
f 52//52 36//36 53//53
f 52//52 68//68 51//51
f 53//53 38//38 54//54
f 53//53 68//68 52//52
f 54//54 38//38 55//55
f 54//54 70//70 53//53
f 55//55 40//40 56//56
f 55//55 70//70 54//54
f 56//56 40//40 57//57
f 56//56 72//72 55//55
f 57//57 42//42 58//58
f 57//57 72//72 56//56
f 58//58 42//42 59//59
f 58//58 74//74 57//57
f 59//59 44//44 60//60
f 59//59 74//74 58//58
f 60//60 44//44 61//61
f 60//60 76//76 59//59
f 61//61 46//46 62//62
f 61//61 76//76 60//60
f 62//62 46//46 63//63
f 62//62 78//78 61//61
f 63//63 48//48 64//64
f 63//63 78//78 62//62
f 64//64 48//48 49//49
f 64//64 80//80 63//63
f 65//65 49//49 66//66
f 65//65 80//80 49//49
f 66//66 51//51 67//67
f 66//66 80//80 65//65
f 67//67 51//51 68//68
f 67//67 79//79 66//66
f 68//68 53//53 69//69
f 68//68 78//78 67//67
f 69//69 53//53 70//70
f 69//69 77//77 68//68
f 70//70 55//55 71//71
f 70//70 76//76 69//69
f 71//71 55//55 72//72
f 71//71 75//75 70//70
f 72//72 57//57 73//73
f 72//72 74//74 71//71
f 73//73 57//57 74//74
f 73//73 74//74 72//72
f 74//74 59//59 75//75
f 75//75 59//59 76//76
f 75//75 71//71 74//74
f 76//76 61//61 77//77
f 76//76 70//70 75//75
f 77//77 61//61 78//78
f 77//77 69//69 76//76
f 78//78 63//63 79//79
f 78//78 68//68 77//77
f 79//79 63//63 80//80
f 79//79 67//67 78//78
f 80//80 66//66 79//79
f 81//81 2//2 82//82
f 81//81 83//83 96//96
f 81//81 96//96 2//2
f 82//82 16//16 83//83
f 82//82 83//83 81//81
f 83//83 16//16 84//84
f 84//84 14//14 85//85
f 84//84 96//96 83//83
f 85//85 14//14 86//86
f 85//85 95//95 84//84
f 86//86 12//12 87//87
f 86//86 94//94 85//85
f 87//87 12//12 88//88
f 87//87 93//93 86//86
f 88//88 10//10 89//89
f 88//88 92//92 87//87
f 89//89 10//10 90//90
f 89//89 91//91 88//88
f 90//90 8//8 91//91
f 90//90 91//91 89//89
f 91//91 8//8 92//92
f 92//92 6//6 93//93
f 92//92 88//88 91//91
f 93//93 6//6 94//94
f 93//93 87//87 92//92
f 94//94 4//4 95//95
f 94//94 86//86 93//93
f 95//95 4//4 96//96
f 95//95 85//85 94//94
f 96//96 84//84 95//95
