# Exported from Wings 3D 0.98.36
mtllib b0_05.mtl
o cube215
#8 vertices, 12 faces
v 13.46695199 140.29540683 127.17078112
v 13.46695199 173.65682369 127.17078112
v 56.87707766 173.65682369 127.17078112
v 56.87707766 140.29540683 127.17078112
v 13.46695199 140.29540683 33.32095316
v 13.46695199 173.65682369 33.32095316
v 56.87707766 173.65682369 33.32095316
v 56.87707766 140.29540683 33.32095316
vn -0.57735027 -0.57735027 0.57735027
vn -0.57735027 0.57735027 0.57735027
vn 0.57735027 0.57735027 0.57735027
vn 0.57735027 -0.57735027 0.57735027
vn -0.57735027 -0.57735027 -0.57735027
vn -0.57735027 0.57735027 -0.57735027
vn 0.57735027 0.57735027 -0.57735027
vn 0.57735027 -0.57735027 -0.57735027
g cube215_default
usemtl default
f 1//1 4//4 2//2
f 1//1 5//5 4//4
f 2//2 4//4 3//3
f 2//2 5//5 1//1
f 2//2 7//7 6//6
f 3//3 7//7 2//2
f 4//4 5//5 8//8
f 4//4 7//7 3//3
f 5//5 7//7 8//8
f 6//6 5//5 2//2
f 6//6 7//7 5//5
f 8//8 7//7 4//4
