# Exported from Wings 3D 0.98.36
mtllib b2f_03.mtl
o cube4_copy7
#8 vertices, 12 faces
v 102.25531545 -125.51624714 73.38895395
v 124.56618634 -10.86095230 73.85566543
v 180.42655159 -49.05258778 49.49395112
v 163.46858582 -157.75099036 49.06162467
v 102.25531545 -125.51624714 -73.38895395
v 124.56618634 -10.86095230 -72.23796317
v 180.42655159 -49.05258778 -49.49395112
v 163.46858582 -157.75099036 -49.06162467
vn -0.67387834 -0.46574655 0.57355744
vn -4.5908818e-2 0.71082061 0.70187353
vn 0.86286920 0.27503747 0.42404142
vn 0.51412948 -0.65175062 0.55757691
vn -0.67694470 -0.46011131 -0.57449408
vn -5.5506817e-2 0.71399593 -0.69794613
vn 0.86071153 0.27893537 -0.42587641
vn 0.51414327 -0.65176055 -0.55755258
g cube4_copy7_default
usemtl default
f 1//1 3//3 2//2
f 1//1 6//6 5//5
f 1//1 8//8 4//4
f 2//2 6//6 1//1
f 3//3 6//6 2//2
f 3//3 8//8 7//7
f 4//4 3//3 1//1
f 4//4 8//8 3//3
f 5//5 8//8 1//1
f 6//6 8//8 5//5
f 7//7 6//6 3//3
f 7//7 8//8 6//6
