# Exported from Wings 3D 0.98.36
mtllib b2f_02.mtl
o cube4
#8 vertices, 12 faces
v -18.09910911 -69.44905169 80.47034424
v 51.54216255 52.98916303 80.09519112
v 124.53182483 -10.91382185 74.09274120
v 102.35145636 -125.07840610 73.28580185
v -18.09910911 -69.44905169 -80.47034424
v 51.54216255 52.98916303 -80.09519112
v 124.53182483 -10.91382185 -72.45615482
v 102.35145636 -125.07840610 -73.28580185
vn -0.74973090 -0.26514842 0.60630016
vn -9.7310887e-2 0.76975862 0.63087420
vn 0.83100709 0.26412058 0.48955851
vn 0.37943263 -0.68942270 0.61703098
vn -0.75103965 -0.26514848 -0.60467820
vn -8.7582040e-2 0.77362069 -0.62756706
vn 0.83624796 0.26538743 -0.47985296
vn 0.38989822 -0.68681849 -0.61340015
g cube4_default
usemtl default
f 1//1 3//3 2//2
f 1//1 6//6 5//5
f 1//1 8//8 4//4
f 2//2 6//6 1//1
f 3//3 6//6 2//2
f 3//3 8//8 7//7
f 4//4 3//3 1//1
f 4//4 8//8 3//3
f 5//5 8//8 1//1
f 6//6 8//8 5//5
f 7//7 6//6 3//3
f 7//7 8//8 6//6
