# Exported from Wings 3D 0.98.36
mtllib b0_03.mtl
o cylinder212
#32 vertices, 60 faces
v 112.40200400 4.0234282e-15 21.63803176
v 103.84591091 -43.01438470 21.63803176
v 79.48021925 -79.48021925 21.63803176
v 43.01438470 -103.84591091 21.63803176
v 1.1672412e-14 -112.40200400 21.63803176
v -43.01438470 -103.84591091 21.63803176
v -79.48021925 -79.48021925 21.63803176
v -103.84591091 -43.01438470 21.63803176
v -112.40200400 -9.7413927e-15 21.63803176
v -103.84591091 43.01438470 21.63803176
v -79.48021925 79.48021925 21.63803176
v -43.01438470 103.84591091 21.63803176
v -1.5857229e-14 112.40200400 21.63803176
v 43.01438470 103.84591091 21.63803176
v 79.48021925 79.48021925 21.63803176
v 103.84591091 43.01438470 21.63803176
v 103.84591091 -43.01438470 199.99633813
v 112.40200400 4.0989355e-15 199.99633813
v 103.84591091 43.01438470 199.99633813
v 79.48021925 79.48021925 199.99633813
v 43.01438470 103.84591091 199.99633813
v -1.5789728e-14 112.40200400 199.99633813
v -43.01438470 103.84591091 199.99633813
v -79.48021925 79.48021925 199.99633813
v -103.84591091 43.01438470 199.99633813
v -112.40200400 -9.6658854e-15 199.99633813
v -103.84591091 -43.01438470 199.99633813
v -79.48021925 -79.48021925 199.99633813
v -43.01438470 -103.84591091 199.99633813
v 1.1739914e-14 -112.40200400 199.99633813
v 43.01438470 -103.84591091 199.99633813
v 79.48021925 -79.48021925 199.99633813
vn 0.89090915 7.0593994e-16 -0.45418155
vn 0.73389537 -0.30398942 -0.60744384
vn 0.38696817 -0.38696817 -0.83696551
vn 0.30398942 -0.73389537 -0.60744384
vn -5.4932641e-18 -0.54725564 -0.83696551
vn -0.30398942 -0.73389537 -0.60744384
vn -0.38696817 -0.38696817 -0.83696551
vn -0.82309273 -0.34093617 -0.45418155
vn -0.89090915 -2.5212141e-17 -0.45418155
vn -0.73389537 0.30398942 -0.60744384
vn -0.38696817 0.38696817 -0.83696551
vn -0.30398942 0.73389537 -0.60744384
vn -9.0182300e-17 0.54725564 -0.83696551
vn 0.30398942 0.73389537 -0.60744384
vn 0.38696817 0.38696817 -0.83696551
vn 0.82309273 0.34093617 -0.45418155
vn 0.64691385 -0.26796049 0.71393252
vn 0.96901550 3.0850311e-16 0.24699991
vn 0.50559828 0.20942567 0.83696551
vn 0.56169920 0.56169920 0.60744384
vn 0.20942567 0.50559828 0.83696551
vn -6.7439813e-17 0.79436263 0.60744384
vn -0.20942567 0.50559828 0.83696551
vn -0.56169920 0.56169920 0.60744384
vn -0.64691385 0.26796049 0.71393252
vn -0.96901550 0.0000000e+0 0.24699991
vn -0.50559828 -0.20942567 0.83696551
vn -0.56169920 -0.56169920 0.60744384
vn -0.20942567 -0.50559828 0.83696551
vn 9.5539735e-17 -0.79436263 0.60744384
vn 0.20942567 -0.50559828 0.83696551
vn 0.56169920 -0.56169920 0.60744384
g cylinder212_default
usemtl default
f 1//1 18//18 2//2
f 2//2 16//16 1//1
f 2//2 32//32 3//3
f 3//3 15//15 2//2
f 3//3 32//32 4//4
f 4//4 14//14 3//3
f 4//4 30//30 5//5
f 5//5 13//13 4//4
f 5//5 30//30 6//6
f 6//6 12//12 5//5
f 6//6 28//28 7//7
f 7//7 11//11 6//6
f 7//7 28//28 8//8
f 8//8 10//10 7//7
f 8//8 26//26 9//9
f 9//9 10//10 8//8
f 9//9 26//26 10//10
f 10//10 24//24 11//11
f 11//11 7//7 10//10
f 11//11 24//24 12//12
f 12//12 6//6 11//11
f 12//12 22//22 13//13
f 13//13 5//5 12//12
f 13//13 22//22 14//14
f 14//14 4//4 13//13
f 14//14 20//20 15//15
f 15//15 3//3 14//14
f 15//15 20//20 16//16
f 16//16 2//2 15//15
f 16//16 18//18 1//1
f 17//17 2//2 18//18
f 17//17 19//19 32//32
f 17//17 32//32 2//2
f 18//18 16//16 19//19
f 18//18 19//19 17//17
f 19//19 16//16 20//20
f 20//20 14//14 21//21
f 20//20 32//32 19//19
f 21//21 14//14 22//22
f 21//21 31//31 20//20
f 22//22 12//12 23//23
f 22//22 30//30 21//21
f 23//23 12//12 24//24
f 23//23 29//29 22//22
f 24//24 10//10 25//25
f 24//24 28//28 23//23
f 25//25 10//10 26//26
f 25//25 27//27 24//24
f 26//26 8//8 27//27
f 26//26 27//27 25//25
f 27//27 8//8 28//28
f 28//28 6//6 29//29
f 28//28 24//24 27//27
f 29//29 6//6 30//30
f 29//29 23//23 28//28
f 30//30 4//4 31//31
f 30//30 22//22 29//29
f 31//31 4//4 32//32
f 31//31 21//21 30//30
f 32//32 20//20 31//31
