# Exported from Wings 3D 0.98.36
mtllib b5_08.mtl
o cylinder105_copy107
#54 vertices, 104 faces
v 57.46871027 75.35493408 0.0000000e+0
v 56.78871143 75.35493408 3.41858504
v 54.85223855 75.35493408 6.31672150
v 51.95410210 75.35493408 8.25319437
v 48.53551705 75.35493408 8.93319322
v 48.53551705 75.35493408 -8.93319322
v 51.95410210 75.35493408 -8.25319437
v 54.85223855 75.35493408 -6.31672150
v 56.78871143 75.35493408 -3.41858504
v 57.46871027 90.00974360 0.0000000e+0
v 56.78871143 90.00974360 3.41858504
v 54.85223855 90.00974360 6.31672150
v 51.95410210 90.00974360 8.25319437
v 48.53551705 93.22132051 5.72161630
v 48.53551705 90.00974360 8.93319322
v 48.53551705 93.22132051 -5.72161630
v 48.53551705 90.00974360 -8.93319322
v 51.95410210 90.00974360 -8.25319437
v 54.85223855 90.00974360 -6.31672150
v 56.78871143 90.00974360 -3.41858504
v 50.70100695 93.22132051 5.22795507
v 52.53682063 93.22132051 4.00130358
v 53.76347212 93.22132051 2.16548989
v 54.19421484 93.22132051 0.0000000e+0
v 53.76347212 93.22132051 -2.16548989
v 52.53682063 93.22132051 -4.00130358
v 50.70100695 93.22132051 -5.22795507
v 57.46871027 60.49679008 0.0000000e+0
v 56.78871143 60.49679008 3.41858504
v 54.85223855 60.49679008 6.31672150
v 51.95410210 60.49679008 8.25319437
v 48.53551705 60.49679008 8.93319322
v 48.53551705 60.49679008 -8.93319322
v 51.95410210 60.49679008 -8.25319437
v 54.85223855 60.49679008 -6.31672150
v 56.78871143 60.49679008 -3.41858504
v 57.46871027 40.20754662 0.0000000e+0
v 56.78871143 40.20754662 3.41858504
v 54.85223855 40.20754662 6.31672150
v 51.95410210 40.20754662 8.25319437
v 48.53551705 40.20754662 8.93319322
v 48.53551705 40.20754662 -8.93319322
v 51.95410210 40.20754662 -8.25319437
v 54.85223855 40.20754662 -6.31672150
v 56.78871143 40.20754662 -3.41858504
v 55.58095377 38.35606283 0.0000000e+0
v 55.04465183 38.35606283 2.69617191
v 53.51739313 38.35606283 4.98187608
v 51.23168896 38.35606283 6.50913478
v 50.38700084 38.35606283 6.67715369
v 50.38700084 38.35606283 -6.67715369
v 51.23168896 38.35606283 -6.50913478
v 53.51739313 38.35606283 -4.98187608
v 55.04465183 38.35606283 -2.69617191
vn 1.00000000 0.0000000e+0 -3.3015896e-17
vn 0.91263679 0.0000000e+0 0.40877144
vn 0.70710678 0.0000000e+0 0.70710678
vn 0.38268343 0.0000000e+0 0.92387953
vn -0.79938119 0.0000000e+0 0.60082419
vn -0.49242898 0.0000000e+0 -0.87035263
vn 0.38268343 0.0000000e+0 -0.92387953
vn 0.70710678 0.0000000e+0 -0.70710678
vn 0.93836137 0.0000000e+0 -0.34565580
vn 0.89586874 0.44326564 3.0574179e-2
vn 0.85109120 0.38905512 0.35253352
vn 0.65139701 0.38905512 0.65139701
vn 0.35253352 0.38905512 0.85109120
vn -0.41639322 0.84089834 0.34569737
vn -0.53672483 0.32611148 0.77818877
vn -0.42009905 0.84049836 -0.34216852
vn -0.82571784 0.21690181 -0.52071457
vn 0.35501849 0.38804368 -0.85051982
vn 0.65139701 0.38905512 -0.65139701
vn 0.86260844 0.33307251 -0.38074845
vn 0.16781853 0.90193654 0.39792891
vn 0.21196986 0.95401130 0.21196986
vn 0.39704794 0.90294239 0.16446264
vn 0.49816529 0.86708209 0.0000000e+0
vn 0.42759814 0.89229815 -0.14478894
vn 0.30388734 0.90294239 -0.30388734
vn 0.11872393 0.95392814 -0.27554624
vn 1.00000000 0.0000000e+0 0.0000000e+0
vn 0.93836137 0.0000000e+0 0.34565580
vn 0.70710678 0.0000000e+0 0.70710678
vn 0.38268343 0.0000000e+0 0.92387953
vn -0.63439328 0.0000000e+0 0.77301045
vn -0.63439328 0.0000000e+0 -0.77301045
vn 0.38268343 0.0000000e+0 -0.92387953
vn 0.70710678 0.0000000e+0 -0.70710678
vn 0.91263679 0.0000000e+0 -0.40877144
vn 0.89586874 -0.44326564 -3.0574179e-2
vn 0.86260844 -0.33307251 0.38074845
vn 0.65139701 -0.38905512 0.65139701
vn 0.35253352 -0.38905512 0.85109120
vn -0.53119102 -0.54671109 0.64725813
vn -0.53119102 -0.54671109 -0.64725813
vn 0.35253352 -0.38905512 -0.85109120
vn 0.65139701 -0.38905512 -0.65139701
vn 0.85109120 -0.38905512 -0.35253352
vn 0.29977065 -0.95401130 -4.1990250e-16
vn 0.42759814 -0.89229815 0.14478894
vn 0.35225606 -0.86708209 0.35225606
vn 0.19063960 -0.86708209 0.46024472
vn -0.16122871 -0.96716578 0.19645776
vn -0.10370857 -0.98654718 -0.12636925
vn 0.22454158 -0.80976420 -0.54209134
vn 0.26614133 -0.92646510 -0.26614133
vn 0.46024472 -0.86708209 -0.19063960
g cylinder105_copy107_default
usemtl default
f 1//1 10//10 2//2
f 1//1 20//20 10//10
f 1//1 28//28 9//9
f 2//2 10//10 11//11
f 2//2 12//12 3//3
f 2//2 29//29 1//1
f 3//3 12//12 4//4
f 3//3 30//30 2//2
f 4//4 12//12 13//13
f 4//4 15//15 5//5
f 4//4 30//30 3//3
f 5//5 17//17 6//6
f 5//5 32//32 4//4
f 6//6 18//18 7//7
f 6//6 32//32 5//5
f 7//7 18//18 8//8
f 7//7 34//34 6//6
f 8//8 18//18 19//19
f 8//8 20//20 9//9
f 8//8 34//34 7//7
f 9//9 20//20 1//1
f 9//9 36//36 8//8
f 10//10 23//23 11//11
f 10//10 25//25 24//24
f 11//11 12//12 2//2
f 11//11 23//23 12//12
f 12//12 21//21 13//13
f 12//12 23//23 22//22
f 13//13 15//15 4//4
f 13//13 21//21 15//15
f 14//14 21//21 16//16
f 15//15 17//17 5//5
f 15//15 21//21 14//14
f 16//16 15//15 14//14
f 16//16 18//18 17//17
f 16//16 21//21 27//27
f 17//17 15//15 16//16
f 17//17 18//18 6//6
f 18//18 16//16 27//27
f 18//18 26//26 19//19
f 19//19 20//20 8//8
f 19//19 26//26 20//20
f 20//20 25//25 10//10
f 20//20 26//26 25//25
f 22//22 21//21 12//12
f 22//22 27//27 21//21
f 23//23 26//26 22//22
f 24//24 23//23 10//10
f 24//24 25//25 23//23
f 26//26 23//23 25//25
f 27//27 22//22 26//26
f 27//27 26//26 18//18
f 28//28 1//1 29//29
f 28//28 37//37 36//36
f 28//28 38//38 37//37
f 29//29 2//2 30//30
f 29//29 38//38 28//28
f 30//30 4//4 31//31
f 30//30 38//38 29//29
f 30//30 40//40 39//39
f 31//31 4//4 32//32
f 31//31 40//40 30//30
f 32//32 6//6 33//33
f 32//32 40//40 31//31
f 32//32 42//42 41//41
f 33//33 6//6 34//34
f 33//33 42//42 32//32
f 34//34 8//8 35//35
f 34//34 42//42 33//33
f 34//34 44//44 43//43
f 35//35 8//8 36//36
f 35//35 44//44 34//34
f 36//36 9//9 28//28
f 36//36 37//37 45//45
f 36//36 44//44 35//35
f 37//37 54//54 45//45
f 38//38 47//47 37//37
f 39//39 38//38 30//30
f 39//39 48//48 38//38
f 40//40 48//48 39//39
f 41//41 40//40 32//32
f 41//41 50//50 40//40
f 42//42 50//50 41//41
f 43//43 42//42 34//34
f 43//43 52//52 42//42
f 44//44 52//52 43//43
f 45//45 44//44 36//36
f 45//45 54//54 44//44
f 46//46 37//37 47//47
f 46//46 51//51 54//54
f 46//46 54//54 37//37
f 47//47 38//38 48//48
f 47//47 50//50 46//46
f 48//48 40//40 49//49
f 48//48 50//50 47//47
f 49//49 40//40 50//50
f 49//49 50//50 48//48
f 50//50 42//42 51//51
f 51//51 42//42 52//52
f 51//51 46//46 50//50
f 52//52 44//44 53//53
f 52//52 53//53 51//51
f 53//53 44//44 54//54
f 54//54 51//51 53//53
