# Exported from Wings 3D 0.98.36
mtllib b5_06.mtl
o cylinder103
#80 vertices, 156 faces
v 39.71168876 -32.56456108 0.0000000e+0
v 36.68881645 -32.56456108 15.19700536
v 28.08040442 -32.56456108 28.08040442
v 15.19700536 -32.56456108 36.68881645
v 5.0693646e-15 -32.56456108 39.71168876
v -15.19700536 -32.56456108 36.68881645
v -28.08040442 -32.56456108 28.08040442
v -36.68881645 -32.56456108 15.19700536
v -39.71168876 -32.56456108 0.0000000e+0
v -36.68881645 -32.56456108 -15.19700536
v -28.08040442 -32.56456108 -28.08040442
v -15.19700536 -32.56456108 -36.68881645
v -4.8131830e-15 -32.56456108 -39.71168876
v 15.19700536 -32.56456108 -36.68881645
v 28.08040442 -32.56456108 -28.08040442
v 36.68881645 -32.56456108 -15.19700536
v 50.03672784 -34.45180453 0.0000000e+0
v 46.22790873 -34.45180453 19.14822675
v 35.38130956 -34.45180453 35.38130956
v 19.14822675 -34.45180453 46.22790873
v 6.7337890e-15 -34.45180453 50.03672784
v -19.14822675 -34.45180453 46.22790873
v -35.38130956 -34.45180453 35.38130956
v -46.22790873 -34.45180453 19.14822675
v -50.03672784 -34.45180453 0.0000000e+0
v -46.22790873 -34.45180453 -19.14822675
v -35.38130956 -34.45180453 -35.38130956
v -19.14822675 -34.45180453 -46.22790873
v -5.7182210e-15 -34.45180453 -50.03672784
v 19.14822675 -34.45180453 -46.22790873
v 35.38130956 -34.45180453 -35.38130956
v 46.22790873 -34.45180453 -19.14822675
v 50.03672784 -68.02217583 0.0000000e+0
v 46.22790873 -68.02217583 19.14822675
v 35.38130956 -68.02217583 35.38130956
v 19.14822675 -68.02217583 46.22790873
v 6.7337890e-15 -68.02217583 50.03672784
v -19.14822675 -68.02217583 46.22790873
v -35.38130956 -68.02217583 35.38130956
v -46.22790873 -68.02217583 19.14822675
v -50.03672784 -68.02217583 0.0000000e+0
v -46.22790873 -68.02217583 -19.14822675
v -35.38130956 -68.02217583 -35.38130956
v -19.14822675 -68.02217583 -46.22790873
v -5.7182210e-15 -68.02217583 -50.03672784
v 19.14822675 -68.02217583 -46.22790873
v 35.38130956 -68.02217583 -35.38130956
v 46.22790873 -68.02217583 -19.14822675
v 47.93518527 -70.14884138 0.0000000e+0
v 44.28633656 -70.14884138 18.34400123
v 33.89529456 -70.14884138 33.89529456
v 18.34400123 -70.14884138 44.28633656
v 6.4882734e-15 -70.14884138 47.93518527
v -18.34400123 -70.14884138 44.28633656
v -33.89529456 -70.14884138 33.89529456
v -44.28633656 -70.14884138 18.34400123
v -47.93518527 -70.14884138 0.0000000e+0
v -44.28633656 -70.14884138 -18.34400123
v -33.89529456 -70.14884138 -33.89529456
v -18.34400123 -70.14884138 -44.28633656
v -5.4407522e-15 -70.14884138 -47.93518527
v 18.34400123 -70.14884138 -44.28633656
v 33.89529456 -70.14884138 -33.89529456
v 44.28633656 -70.14884138 -18.34400123
v 25.88500005 -70.14884138 2.9730911e-15
v 23.91462174 -70.14884138 9.90576066
v 18.30345906 -70.14884138 18.30345906
v 9.90576066 -70.14884138 23.91462174
v 6.0635461e-15 -70.14884138 25.88500005
v -9.90576066 -70.14884138 23.91462174
v -18.30345906 -70.14884138 18.30345906
v -23.91462174 -70.14884138 9.90576066
v -25.88500005 -70.14884138 3.3978183e-15
v -23.91462174 -70.14884138 -9.90576066
v -18.30345906 -70.14884138 -18.30345906
v -9.90576066 -70.14884138 -23.91462174
v 1.2822521e-14 -70.14884138 -25.88500005
v 9.90576066 -70.14884138 -23.91462174
v 18.30345906 -70.14884138 -18.30345906
v 23.91462174 -70.14884138 -9.90576066
vn 0.14420167 0.98954832 -6.9606240e-17
vn 8.3372578e-2 0.99591988 3.4534052e-2
vn 7.2923653e-2 0.99466793 7.2923653e-2
vn 2.7620924e-2 0.99739184 6.6682810e-2
vn 0.0000000e+0 0.99466793 0.10312962
vn -2.7620924e-2 0.99739184 6.6682810e-2
vn -7.2923653e-2 0.99466793 7.2923653e-2
vn -6.6682810e-2 0.99739184 2.7620924e-2
vn -0.14420167 0.98954832 -2.9234621e-17
vn -8.3372578e-2 0.99591988 -3.4534052e-2
vn -7.2923653e-2 0.99466793 -7.2923653e-2
vn -2.7620924e-2 0.99739184 -6.6682810e-2
vn -7.9649176e-18 0.99466793 -0.10312962
vn 2.7620924e-2 0.99739184 -6.6682810e-2
vn 7.2923653e-2 0.99466793 -7.2923653e-2
vn 6.6682810e-2 0.99739184 -2.7620924e-2
vn 0.76301857 0.64637656 -1.9161919e-16
vn 0.70493724 0.64637656 0.29199457
vn 0.53953561 0.64637656 0.53953561
vn 0.29199457 0.64637656 0.70493724
vn -2.7374169e-17 0.64637656 0.76301857
vn -0.29199457 0.64637656 0.70493724
vn -0.53953561 0.64637656 0.53953561
vn -0.70493724 0.64637656 0.29199457
vn -0.76301857 0.64637656 -1.0949668e-16
vn -0.70493724 0.64637656 -0.29199457
vn -0.53953561 0.64637656 -0.53953561
vn -0.29199457 0.64637656 -0.70493724
vn -8.2122508e-17 0.64637656 -0.76301857
vn 0.29199457 0.64637656 -0.70493724
vn 0.53953561 0.64637656 -0.53953561
vn 0.70493724 0.64637656 -0.29199457
vn 0.92427000 -0.38173940 -7.9926594e-17
vn 0.85391414 -0.38173940 0.35370282
vn 0.65355758 -0.38173940 0.65355758
vn 0.35370282 -0.38173940 0.85391414
vn -1.9030141e-17 -0.38173940 0.92427000
vn -0.35370282 -0.38173940 0.85391414
vn -0.65355758 -0.38173940 0.65355758
vn -0.85391414 -0.38173940 0.35370282
vn -0.92427000 -0.38173940 -1.1037482e-16
vn -0.85391414 -0.38173940 -0.35370282
vn -0.65355758 -0.38173940 -0.65355758
vn -0.35370282 -0.38173940 -0.85391414
vn -1.2940496e-16 -0.38173940 -0.92427000
vn 0.35370282 -0.38173940 -0.85391414
vn 0.65355758 -0.38173940 -0.65355758
vn 0.85391414 -0.38173940 -0.35370282
vn 0.38351581 -0.92353431 -2.2957901e-16
vn 0.35432240 -0.92353431 0.14676515
vn 0.27118663 -0.92353431 0.27118663
vn 0.14676515 -0.92353431 0.35432240
vn -1.5114274e-17 -0.92353431 0.38351581
vn -0.14676515 -0.92353431 0.35432240
vn -0.27118663 -0.92353431 0.27118663
vn -0.35432240 -0.92353431 0.14676515
vn -0.38351581 -0.92353431 -3.0228548e-17
vn -0.35432240 -0.92353431 -0.14676515
vn -0.27118663 -0.92353431 -0.27118663
vn -0.14676515 -0.92353431 -0.35432240
vn -4.2319967e-16 -0.92353431 -0.38351581
vn 0.14676515 -0.92353431 -0.35432240
vn 0.27118663 -0.92353431 -0.27118663
vn 0.35432240 -0.92353431 -0.14676515
vn 0.0000000e+0 -1.00000000 2.4775194e-16
vn 0.0000000e+0 -1.00000000 3.6434109e-16
vn 0.0000000e+0 -1.00000000 -1.4871065e-16
vn 0.0000000e+0 -1.00000000 7.3061786e-18
vn 0.0000000e+0 -1.00000000 -1.4871065e-16
vn 0.0000000e+0 -1.00000000 -4.1638982e-16
vn 0.0000000e+0 -1.00000000 -1.6060750e-16
vn 0.0000000e+0 -1.00000000 3.9036545e-16
vn 0.0000000e+0 -1.00000000 -5.2048727e-17
vn 0.0000000e+0 -1.00000000 -3.6434109e-16
vn 0.0000000e+0 -1.00000000 -1.4871065e-16
vn 0.0000000e+0 -1.00000000 -1.1951930e-16
vn 0.0000000e+0 -1.00000000 -8.0152229e-17
vn 0.0000000e+0 -1.00000000 -1.1221312e-16
vn 0.0000000e+0 -1.00000000 6.8406899e-17
vn 0.0000000e+0 -1.00000000 3.2530455e-16
g cylinder103_default
usemtl default
f 1//1 16//16 2//2
f 1//1 32//32 16//16
f 2//2 16//16 3//3
f 2//2 18//18 1//1
f 3//3 15//15 4//4
f 3//3 18//18 2//2
f 4//4 14//14 5//5
f 4//4 20//20 3//3
f 5//5 13//13 6//6
f 5//5 20//20 4//4
f 6//6 12//12 7//7
f 6//6 22//22 5//5
f 7//7 11//11 8//8
f 7//7 22//22 6//6
f 8//8 10//10 9//9
f 8//8 24//24 7//7
f 9//9 24//24 8//8
f 10//10 8//8 11//11
f 10//10 26//26 9//9
f 11//11 7//7 12//12
f 11//11 26//26 10//10
f 12//12 6//6 13//13
f 12//12 28//28 11//11
f 13//13 5//5 14//14
f 13//13 28//28 12//12
f 14//14 4//4 15//15
f 14//14 30//30 13//13
f 15//15 3//3 16//16
f 15//15 30//30 14//14
f 16//16 32//32 15//15
f 17//17 1//1 18//18
f 17//17 32//32 1//1
f 17//17 33//33 32//32
f 18//18 3//3 19//19
f 18//18 33//33 17//17
f 19//19 3//3 20//20
f 19//19 35//35 18//18
f 20//20 5//5 21//21
f 20//20 35//35 19//19
f 21//21 5//5 22//22
f 21//21 37//37 20//20
f 22//22 7//7 23//23
f 22//22 37//37 21//21
f 23//23 7//7 24//24
f 23//23 39//39 22//22
f 24//24 9//9 25//25
f 24//24 39//39 23//23
f 25//25 9//9 26//26
f 25//25 41//41 24//24
f 26//26 11//11 27//27
f 26//26 41//41 25//25
f 27//27 11//11 28//28
f 27//27 43//43 26//26
f 28//28 13//13 29//29
f 28//28 43//43 27//27
f 29//29 13//13 30//30
f 29//29 45//45 28//28
f 30//30 15//15 31//31
f 30//30 45//45 29//29
f 31//31 15//15 32//32
f 31//31 47//47 30//30
f 32//32 47//47 31//31
f 33//33 18//18 34//34
f 33//33 64//64 48//48
f 34//34 18//18 35//35
f 34//34 50//50 33//33
f 35//35 20//20 36//36
f 35//35 50//50 34//34
f 36//36 20//20 37//37
f 36//36 52//52 35//35
f 37//37 22//22 38//38
f 37//37 52//52 36//36
f 38//38 22//22 39//39
f 38//38 54//54 37//37
f 39//39 24//24 40//40
f 39//39 54//54 38//38
f 40//40 24//24 41//41
f 40//40 56//56 39//39
f 41//41 26//26 42//42
f 41//41 56//56 40//40
f 42//42 26//26 43//43
f 42//42 58//58 41//41
f 43//43 28//28 44//44
f 43//43 58//58 42//42
f 44//44 28//28 45//45
f 44//44 60//60 43//43
f 45//45 30//30 46//46
f 45//45 60//60 44//44
f 46//46 30//30 47//47
f 46//46 62//62 45//45
f 47//47 32//32 48//48
f 47//47 62//62 46//46
f 48//48 32//32 33//33
f 48//48 64//64 47//47
f 49//49 33//33 50//50
f 49//49 64//64 33//33
f 49//49 65//65 64//64
f 50//50 35//35 51//51
f 50//50 65//65 49//49
f 51//51 35//35 52//52
f 51//51 67//67 50//50
f 52//52 37//37 53//53
f 52//52 67//67 51//51
f 53//53 37//37 54//54
f 53//53 69//69 52//52
f 54//54 39//39 55//55
f 54//54 69//69 53//53
f 55//55 39//39 56//56
f 55//55 71//71 54//54
f 56//56 41//41 57//57
f 56//56 71//71 55//55
f 57//57 41//41 58//58
f 57//57 73//73 56//56
f 58//58 43//43 59//59
f 58//58 73//73 57//57
f 59//59 43//43 60//60
f 59//59 75//75 58//58
f 60//60 45//45 61//61
f 60//60 75//75 59//59
f 61//61 45//45 62//62
f 61//61 77//77 60//60
f 62//62 47//47 63//63
f 62//62 77//77 61//61
f 63//63 47//47 64//64
f 63//63 79//79 62//62
f 64//64 79//79 63//63
f 65//65 50//50 66//66
f 66//66 50//50 67//67
f 66//66 80//80 65//65
f 67//67 52//52 68//68
f 67//67 79//79 66//66
f 68//68 52//52 69//69
f 68//68 78//78 67//67
f 69//69 54//54 70//70
f 69//69 77//77 68//68
f 70//70 54//54 71//71
f 70//70 76//76 69//69
f 71//71 56//56 72//72
f 71//71 75//75 70//70
f 72//72 56//56 73//73
f 72//72 74//74 71//71
f 73//73 58//58 74//74
f 73//73 74//74 72//72
f 74//74 58//58 75//75
f 75//75 60//60 76//76
f 75//75 71//71 74//74
f 76//76 60//60 77//77
f 76//76 70//70 75//75
f 77//77 62//62 78//78
f 77//77 69//69 76//76
f 78//78 62//62 79//79
f 78//78 68//68 77//77
f 79//79 64//64 80//80
f 79//79 67//67 78//78
f 80//80 64//64 65//65
f 80//80 66//66 79//79
